# Made in Blockbench 4.9.4
mtllib dyespria_plant_thick_rotated.mtl

o cube_selection
v 0.9204458766883996 0.9243370008298633 0.5668116551137053
v 0.5668924860951254 0.9243370008298631 0.920365045706979
v 0.9035334985588308 0.8665945300479079 0.5498992769841367
v 0.5499801079655569 0.8665945300479078 0.9034526675774103
v 1.04293615464556 0.8525838572614088 0.6893019330708658
v 0.6893827640522857 0.8525838572614088 1.0428553236641394
v 1.0260237765159912 0.7948413864794535 0.672389554941297
v 0.6724703859227171 0.7948413864794535 1.0259429455345708
v 0.49718445552179136 1 -0.034065544478208754
v 0.49718445552179136 1 -0.034065544478208754
v 0.49718445552179114 1 0.9659344555217912
v 0.49718445552179114 1 0.9659344555217912
v 1.0284344555217912 1 0.4971844555217914
v 1.0284344555217912 1 0.4971844555217914
v 0.028434455521791246 1 0.497184455521791
v 0.028434455521791246 1 0.497184455521791
v 0.028434455521791246 0 0.497184455521791
v 0.028434455521791246 0 0.497184455521791
v 0.4250650477505352 0.9229854345603979 0.9222356348684344
v 0.07151165715726182 0.9229854345603979 0.5686822442751605
v 0.6750650477505353 0.5694320439671242 0.6722356348684346
v 0.3215116571572618 0.5694320439671242 0.3186822442751607
v 0.3938150477505352 0.8787912607362387 0.9534856348684344
v 0.040261657157261765 0.8787912607362387 0.5999322442751605
v 0.6438150477505353 0.525237870142965 0.7034856348684346
v 0.2902616571572618 0.525237870142965 0.3499322442751606
v 1.040726445954352 0.849458857261409 0.30436452797341046
v 0.6871730553610785 0.849458857261409 -0.04918886261986355
v 1.0238140678247833 0.7917163864794536 0.32127690610297915
v 0.67026067723151 0.7917163864794536 -0.032276484490294965
v 0.918236167997192 0.9212120008298633 0.4268548059305705
v 0.5646827774039184 0.9212120008298633 0.07330141533729667
v 0.9013237898676232 0.8634695300479079 0.4437671840601392
v 0.5477703992743496 0.8634695300479079 0.09021379346686514
v 0.42800142975403643 0.9243370008298633 0.9215089615561414
v 0.07444803916076292 0.9243370008298633 0.5679555709628672
v 0.444913807883605 0.8665945300479079 0.9045965834265726
v 0.09136041729033145 0.8665945300479079 0.5510431928332986
v 0.30551115179687593 0.852583857261409 1.0439992395133015
v -0.04804223879639746 0.852583857261409 0.6904458489200275
v 0.32242352992644463 0.7948413864794536 1.027086861383733
v -0.03112986066682888 0.7948413864794536 0.6735334707904589
v 0.9527366283237815 0.876110434560398 0.39456405429518876
v 0.5991832377305081 0.8761104345603982 0.04101066370191481
v 0.7027366283237815 0.5225570439671243 0.6445640542951887
v 0.3491832377305078 0.5225570439671243 0.29101066370191464
v 0.9214866283237815 0.9203046083845573 0.42581405429518876
v 0.5679332377305081 0.9203046083845573 0.0722606637019148
v 0.6714866283237815 0.5667512177912836 0.6758140542951886
v 0.31793323773050786 0.5667512177912837 0.32226066370191464
v 0.4490735482616201 0.7403648089978588 0.19660556339526403
v 0.4490735482616201 0.7403648089978588 0.19660556339526403
v 0.32407354826161994 0.563588113701222 0.3216055633952639
v 0.32407354826161994 0.563588113701222 0.3216055633952639
v 0.32407354826161994 0.9171415042944957 0.3216055633952639
v 0.32407354826161994 0.9171415042944957 0.3216055633952639
v 0.19907354826161994 0.7403648089978588 0.4466055633952638
v 0.19907354826161994 0.7403648089978588 0.4466055633952638
v 0.7950825214724777 0.7385342263802748 0.5488645366061221
v 0.7950825214724777 0.7385342263802748 0.5488645366061221
v 0.6700825214724777 0.5617575310836379 0.673864536606122
v 0.6700825214724777 0.5617575310836379 0.673864536606122
v 0.6700825214724777 0.9153109216769116 0.673864536606122
v 0.6700825214724777 0.9153109216769116 0.673864536606122
v 0.5450825214724774 0.7385342263802748 0.7988645366061218
v 0.5450825214724774 0.7385342263802748 0.7988645366061218
v 0.5478014517383805 0.7385342263802747 0.19973056339526413
v 0.5478014517383805 0.7385342263802747 0.19973056339526413
v 0.6728014517383802 0.5617575310836379 0.3247305633952643
v 0.6728014517383802 0.5617575310836379 0.3247305633952643
v 0.6728014517383802 0.9153109216769116 0.32473056339526407
v 0.6728014517383802 0.9153109216769116 0.32473056339526407
v 0.7978014517383802 0.7385342263802748 0.44973056339526435
v 0.7978014517383802 0.7385342263802748 0.44973056339526435
v 0.9211725500006929 0.9229854345603978 0.5697480371172068
v 0.5676191594074188 0.9229854345603978 0.9233014277104801
v 0.6711725500006931 0.5694320439671242 0.31974803711720645
v 0.317619159407419 0.5694320439671241 0.6733014277104798
v 0.9524225500006929 0.8787912607362387 0.6009980371172067
v 0.5988691594074188 0.8787912607362386 0.9545514277104801
v 0.702422550000693 0.525237870142965 0.3509980371172064
v 0.34886915940741897 0.525237870142965 0.7045514277104798
v 0.303301443105669 0.8494588572614089 -0.04591336108661026
v -0.0502519474876052 0.8494588572614089 0.30764002950666314
v 0.32021382123523734 0.7917163864794535 -0.029000982957041677
v -0.0333395693580365 0.7917163864794535 0.32455240763623183
v 0.4257917210628289 0.9212120008298632 0.07657691687054985
v 0.07223833046955491 0.9212120008298633 0.4301303074638234
v 0.4427040991923975 0.8634695300479078 0.09348929500011849
v 0.08915070859912355 0.8634695300479078 0.44704268559339205
v 0.39350096942744706 0.876110434560398 0.042076456543960084
v 0.0399475788341731 0.876110434560398 0.3956298471372336
v 0.643500969427447 0.5225570439671243 0.2920764565439604
v 0.2899475788341729 0.5225570439671243 0.6456298471372339
v 0.42475096942744706 0.9203046083845572 0.07332645654396014
v 0.07119757883417305 0.9203046083845573 0.4268798471372336
v 0.6747509694274468 0.5667512177912836 0.3233264565439604
v 0.321197578834173 0.5667512177912836 0.6768798471372339
v 0.19554247852752238 0.7403648089978588 0.5457395366061216
v 0.19554247852752238 0.7403648089978588 0.5457395366061216
v 0.32054247852752227 0.563588113701222 0.6707395366061217
v 0.32054247852752227 0.563588113701222 0.6707395366061217
v 0.32054247852752216 0.9171415042944957 0.6707395366061217
v 0.32054247852752216 0.9171415042944957 0.6707395366061217
v 0.4455424785275221 0.740364808997859 0.7957395366061217
v 0.4455424785275221 0.740364808997859 0.7957395366061217
v 0.49718445552179114 0.9375 0.9659344555217912
v 0.49718445552179114 0.9375 0.9659344555217912
v 0.49718445552179114 0.05514705882352944 0.9659344555217912
v 0.49718445552179114 0.05514705882352944 0.9659344555217912
v 0.8728349330271445 0.9375 0.12153397801643784
v 0.8728349330271445 0.9375 0.12153397801643784
v 0.8728349330271445 0 0.12153397801643784
v 0.8728349330271445 0 0.12153397801643784
v 0.16572815184059714 0.9375 0.8286407592029854
v 0.16572815184059714 0.9375 0.8286407592029854
v 0.16572815184059714 0 0.8286407592029854
v 0.16572815184059714 0 0.8286407592029854
v 0.8728349330271447 0.9375 0.8728349330271448
v 0.8728349330271447 0.9375 0.8728349330271448
v 0.8728349330271447 0 0.8728349330271448
v 0.8728349330271447 0 0.8728349330271448
v 0.16572815184059714 0.9375 0.16572815184059714
v 0.16572815184059714 0.9375 0.16572815184059714
v 0.16572815184059714 0 0.16572815184059714
v 0.16572815184059714 0 0.16572815184059714
vt 0.203125 0.453125
vt 0.203125 0.4375
vt 0.15625 0.4375
vt 0.15625 0.453125
vt 0.296875 0.5
vt 0.296875 0.375
vt 0.34375 0.375
vt 0.34375 0.5
vt 0.34375 0.375
vt 0.34375 0.5
vt 0.390625 0.5
vt 0.390625 0.375
vt 0.1875 0.390625
vt 0.1875 0.375
vt 0.140625 0.375
vt 0.140625 0.390625
vt 0.1875 0.390625
vt 0.1875 0.375
vt 0.140625 0.375
vt 0.140625 0.390625
vt 0.12500000000000006 0.3593749999999999
vt 0.12500000000000006 0.375
vt 1.3877787807814457e-17 0.375
vt 1.3877787807814457e-17 0.3593749999999999
vt 0 1
vt 0.25 1
vt 0 1
vt 0.25 1
vt 0 1
vt 0 1
vt 0 0.75
vt 0 0.75
vt 0 1
vt 0.25 1
vt 0 1
vt 0.25 1
vt 0.125 0.375
vt 0.125 0.5
vt 0 0.5
vt 0 0.375
vt 0.625 0.875
vt 0.625 1
vt 0.5 1
vt 0.5 0.875
vt 0 1
vt 0 0.875
vt 0 0.875
vt 0 1
vt 0.1875 0.390625
vt 0.1875 0.375
vt 0.140625 0.375
vt 0.140625 0.390625
vt 0.1875 0.390625
vt 0.1875 0.375
vt 0.140625 0.375
vt 0.140625 0.390625
vt 0.1875 0.390625
vt 0.1875 0.375
vt 0.140625 0.375
vt 0.140625 0.390625
vt 0.203125 0.453125
vt 0.203125 0.4375
vt 0.15625 0.4375
vt 0.15625 0.453125
vt 0.24999999999999994 0.265625
vt 0.24999999999999994 0.28125
vt 0.125 0.28125
vt 0.125 0.265625
vt 0.25 0.5
vt 0.25 0.375
vt 0.296875 0.375
vt 0.296875 0.5
vt 0.5 0.609375
vt 0.5 0.734375
vt 0.546875 0.734375
vt 0.546875 0.609375
vt 0.1875 0.390625
vt 0.1875 0.375
vt 0.140625 0.375
vt 0.140625 0.390625
vt 0.1875 0.390625
vt 0.1875 0.375
vt 0.140625 0.375
vt 0.140625 0.390625
vt 0.171875 0.359375
vt 0.171875 0.375
vt 0.046875 0.375
vt 0.046875 0.359375
vt 0.203125 0.453125
vt 0.203125 0.4375
vt 0.15625 0.4375
vt 0.15625 0.453125
vt 0.296875 0.5
vt 0.296875 0.375
vt 0.34375 0.375
vt 0.34375 0.5
vt 0.34375 0.375
vt 0.34375 0.5
vt 0.390625 0.5
vt 0.390625 0.375
vt 0.1875 0.390625
vt 0.1875 0.375
vt 0.140625 0.375
vt 0.140625 0.390625
vt 0.1875 0.390625
vt 0.1875 0.375
vt 0.140625 0.375
vt 0.140625 0.390625
vt 0.25 0.375
vt 0.25 0.5
vt 0.125 0.5
vt 0.125 0.375
vt 0.625 0.734375
vt 0.625 0.859375
vt 0.5 0.859375
vt 0.5 0.734375
vt 0 1
vt 0 0.875
vt 0 0.875
vt 0 1
vt 0.1875 0.390625
vt 0.1875 0.375
vt 0.140625 0.375
vt 0.140625 0.390625
vt 0.1875 0.390625
vt 0.1875 0.375
vt 0.140625 0.375
vt 0.140625 0.390625
vt 0.1875 0.390625
vt 0.1875 0.375
vt 0.140625 0.375
vt 0.140625 0.390625
vt 0 1
vt 0 1
vt 0 0.9375
vt 0 0.9375
vt 0 1
vt 0 1
vt 0 0.9375
vt 0 0.9375
vt 0 1
vt 0.0625 1
vt 0 1
vt 0.0625 1
vt 0 1
vt 0.0625 1
vt 0 1
vt 0.0625 1
vt 0.49259690463264627 0.5566992393712087
vt 0.5526757606287913 0.5394719046326463
vt 0.5699030953673537 0.5995507606287913
vt 0.5098242393712087 0.6167780953673537
vt 0.453125 0.4375
vt 0.453125 0.5
vt 0.390625 0.5
vt 0.390625 0.4375
vt 0 1
vt 0 1
vt 0 0.9375
vt 0 0.9375
vt 0 1
vt 0 1
vt 0 0.9375
vt 0 0.9375
vt 0 1
vt 0.0625 1
vt 0 1
vt 0.0625 1
vt 0 1
vt 0.0625 1
vt 0 1
vt 0.0625 1
vt 0.515625 0.484375
vt 0.578125 0.484375
vt 0.578125 0.546875
vt 0.515625 0.546875
vt 0.515625 0.4375
vt 0.515625 0.5
vt 0.453125 0.5
vt 0.453125 0.4375
vt 0 1
vt 0 1
vt 0 0.9375
vt 0 0.9375
vt 0 1
vt 0 1
vt 0 0.9375
vt 0 0.9375
vt 0 1
vt 0.0625 1
vt 0 1
vt 0.0625 1
vt 0 1
vt 0.0625 1
vt 0 1
vt 0.0625 1
vt 0.515625 0.484375
vt 0.578125 0.484375
vt 0.578125 0.546875
vt 0.515625 0.546875
vt 0.515625 0.4375
vt 0.515625 0.5
vt 0.453125 0.5
vt 0.453125 0.4375
vt 0.125 0.375
vt 0.125 0.5
vt 0 0.5
vt 0 0.375
vt 0.625 0.875
vt 0.625 1
vt 0.5 1
vt 0.5 0.875
vt 0 1
vt 0 0.875
vt 0 0.875
vt 0 1
vt 0.1875 0.390625
vt 0.1875 0.375
vt 0.140625 0.375
vt 0.140625 0.390625
vt 0.1875 0.390625
vt 0.1875 0.375
vt 0.140625 0.375
vt 0.140625 0.390625
vt 0.1875 0.390625
vt 0.1875 0.375
vt 0.140625 0.375
vt 0.140625 0.390625
vt 0.203125 0.453125
vt 0.203125 0.4375
vt 0.15625 0.4375
vt 0.15625 0.453125
vt 0.171875 0.3125
vt 0.171875 0.328125
vt 0.046875 0.328125
vt 0.046875 0.3125
vt 0.25 0.5
vt 0.25 0.375
vt 0.296875 0.375
vt 0.296875 0.5
vt 0.5 0.609375
vt 0.5 0.734375
vt 0.546875 0.734375
vt 0.546875 0.609375
vt 0.1875 0.390625
vt 0.1875 0.375
vt 0.140625 0.375
vt 0.140625 0.390625
vt 0.1875 0.390625
vt 0.1875 0.375
vt 0.140625 0.375
vt 0.140625 0.390625
vt 0.25 0.375
vt 0.25 0.5
vt 0.125 0.5
vt 0.125 0.375
vt 0.625 0.734375
vt 0.625 0.859375
vt 0.5 0.859375
vt 0.5 0.734375
vt 0 1
vt 0 0.875
vt 0 0.875
vt 0 1
vt 0.1875 0.390625
vt 0.1875 0.375
vt 0.140625 0.375
vt 0.140625 0.390625
vt 0.1875 0.390625
vt 0.1875 0.375
vt 0.140625 0.375
vt 0.140625 0.390625
vt 0.1875 0.390625
vt 0.1875 0.375
vt 0.140625 0.375
vt 0.140625 0.390625
vt 0 1
vt 0 1
vt 0 0.9375
vt 0 0.9375
vt 0 1
vt 0 1
vt 0 0.9375
vt 0 0.9375
vt 0 1
vt 0.0625 1
vt 0 1
vt 0.0625 1
vt 0 1
vt 0.0625 1
vt 0 1
vt 0.0625 1
vt 0.49187270279155937 0.5580612649399935
vt 0.5513137350600065 0.5387477027915594
vt 0.5706272972084406 0.5981887350600065
vt 0.5111862649399935 0.6175022972084406
vt 0.4531249999999999 0.4374999999999999
vt 0.4531250000000001 0.5
vt 0.3906250000000001 0.5
vt 0.3906249999999999 0.4375
vt 0 1
vt 0 1
vt 0 0.75
vt 0 0.75
vt 0 1
vt 0 1
vt 0 0.7647058823529411
vt 0 0.7647058823529411
vt 0 1
vt 0.25 1
vt 0 1
vt 0.25 1
vt 0.5 0.5
vt 0.5 0.75
vt 0.25 0.75
vt 0.25 0.5
vt 0.25 0.75
vt 0.25 1
vt 0.5 1
vt 0.5 0.75
vt 0 1
vt 0 1
vt 0 0.7647058823529411
vt 0 0.7647058823529411
vt 0 1
vt 0.25 1
vt 0 1
vt 0.25 1
vt 0.25 0.5
vt 0.25 0.75
vt 0 0.75
vt 0 0.5
vt 0 0.75
vt 0 1
vt 0.25 1
vt 0.25 0.75
vn 0.6532814824381872 -0.3826834323650919 0.6532814824381883
vn 0.27059805007309806 0.9238795325112868 0.2705980500730988
vn -0.2705980500730983 -0.9238795325112867 -0.27059805007309884
vn 0.7071067811865472 -1.1472304587793273e-15 -0.7071067811865478
vn -0.707106781186548 1.6653345369377368e-16 0.7071067811865471
vn -0.653281482438188 0.38268343236508967 -0.6532814824381887
vn 0 0 0
vn 0 0 0
vn 0 0 0
vn 0.5000000000000004 0.7071067811865475 -0.4999999999999997
vn -0.5000000000000004 -0.7071067811865475 0.4999999999999997
vn -0.5000000000000004 0.7071067811865475 0.4999999999999998
vn 0.5000000000000004 -0.7071067811865474 -0.4999999999999998
vn 0.7071067811865472 0 0.7071067811865479
vn -0.707106781186547 2.220446049250312e-16 -0.7071067811865481
vn 0.6532814824381893 -0.3826834323650886 -0.6532814824381881
vn -0.6532814824381878 0.38268343236509184 0.6532814824381876
vn 0.27059805007309884 0.9238795325112867 -0.2705980500730984
vn -0.27059805007309917 -0.9238795325112867 0.2705980500730986
vn 0.7071067811865483 8.326672684688702e-16 0.7071067811865468
vn -0.7071067811865466 3.5527136788005065e-15 -0.7071067811865486
vn 0.6532814824381893 0.3826834323650881 -0.6532814824381883
vn -0.6532814824381883 -0.38268343236509184 0.6532814824381872
vn -0.27059805007309856 0.9238795325112868 0.2705980500730981
vn 0.2705980500730985 -0.9238795325112868 -0.27059805007309823
vn 0.7071067811865476 -2.6275278249462035e-15 0.7071067811865475
vn -0.7071067811865471 1.6653345369377368e-16 -0.707106781186548
vn 0.5000000000000002 -0.7071067811865476 -0.4999999999999998
vn -0.5000000000000003 0.7071067811865476 0.49999999999999967
vn 0.4999999999999999 0.7071067811865483 -0.499999999999999
vn -0.5000000000000009 -0.7071067811865467 0.5000000000000002
vn 0.7071067811865475 0 0.7071067811865477
vn -0.7071067811865472 0 -0.7071067811865479
vn 0 0 0
vn 0 0 0
vn 0 0 0
vn 0 0 0
vn 0.7071067811865467 0 0.7071067811865485
vn -0.707106781186547 -5.551115123125784e-16 -0.707106781186548
vn 0 0 0
vn 0 0 0
vn 0 0 0
vn 0 0 0
vn 0.7071067811865475 0 0.7071067811865477
vn -0.7071067811865468 8.881784197001254e-16 -0.7071067811865483
vn 0 0 0
vn 0 0 0
vn 0 0 0
vn 0 0 0
vn 0.707106781186548 -4.4408920985006247e-16 -0.7071067811865471
vn -0.707106781186548 5.551115123125781e-16 0.707106781186547
vn -0.4999999999999995 0.7071067811865476 -0.5000000000000004
vn 0.49999999999999956 -0.7071067811865477 0.5000000000000002
vn 0.49999999999999967 0.7071067811865475 0.5000000000000007
vn -0.5000000000000004 -0.7071067811865462 -0.5000000000000017
vn 0.7071067811865472 1.776356839400254e-15 -0.7071067811865479
vn -0.7071067811865479 -2.2204460492503126e-16 0.7071067811865472
vn -0.6532814824381874 -0.38268343236509084 -0.6532814824381885
vn 0.6532814824381882 0.38268343236508917 0.6532814824381887
vn -0.2705980500730987 0.9238795325112865 -0.2705980500730992
vn 0.27059805007309856 -0.9238795325112868 0.27059805007309873
vn 0.7071067811865488 -2.0724163126336344e-15 -0.7071067811865464
vn -0.7071067811865481 -2.2204460492503126e-16 0.707106781186547
vn -0.4999999999999997 -0.7071067811865476 -0.5000000000000003
vn 0.4999999999999998 0.7071067811865478 0.5000000000000001
vn -0.5000000000000002 0.7071067811865469 -0.5000000000000007
vn 0.5000000000000001 -0.7071067811865468 0.500000000000001
vn 0.7071067811865481 2.2204460492503136e-16 -0.707106781186547
vn -0.7071067811865481 -4.440892098500627e-16 0.707106781186547
vn 0 0 0
vn 0 0 0
vn 0 0 0
vn 0 0 0
vn 0.707106781186548 2.2204460492503146e-16 -0.7071067811865471
vn -0.707106781186548 -2.220446049250315e-16 0.7071067811865471
vn 0 0 0
vn 0 0 0
vn 0 0 0
vn 0.7071067811865477 0 0.7071067811865474
vn -0.7071067811865477 0 -0.7071067811865474
vn 0 0 0
vn 0 0 0
vn -0.7071067811865476 0 0.7071067811865476
vn 0.7071067811865476 0 -0.7071067811865476
usemtl m_fdc91c9f-336f-16df-38dc-4bafc7811f33
f 7/1/1 5/2/1 6/3/1 8/4/1
f 1/5/2 2/6/2 6/7/2 5/8/2
f 4/9/3 3/10/3 7/11/3 8/12/3
f 3/13/4 1/14/4 5/15/4 7/16/4
f 8/17/5 6/18/5 2/19/5 4/20/5
f 4/21/6 2/22/6 1/23/6 3/24/6
f 10/25/7 12/26/7 9/27/7 11/28/7
f 15/29/8 16/30/8 17/31/8 18/32/8
f 14/33/9 16/34/9 13/35/9 15/36/9
f 22/37/10 20/38/10 19/39/10 21/40/10
f 25/41/11 23/42/11 24/43/11 26/44/11
f 19/45/12 20/46/12 24/47/12 23/48/12
f 22/49/13 21/50/13 25/51/13 26/52/13
f 21/53/14 19/54/14 23/55/14 25/56/14
f 26/57/15 24/58/15 20/59/15 22/60/15
f 30/61/16 28/62/16 27/63/16 29/64/16
f 33/65/17 31/66/17 32/67/17 34/68/17
f 27/69/18 28/70/18 32/71/18 31/72/18
f 30/73/19 29/74/19 33/75/19 34/76/19
f 29/77/20 27/78/20 31/79/20 33/80/20
f 34/81/21 32/82/21 28/83/21 30/84/21
f 38/85/22 36/86/22 35/87/22 37/88/22
f 41/89/23 39/90/23 40/91/23 42/92/23
f 35/93/24 36/94/24 40/95/24 39/96/24
f 38/97/25 37/98/25 41/99/25 42/100/25
f 37/101/26 35/102/26 39/103/26 41/104/26
f 42/105/27 40/106/27 36/107/27 38/108/27
f 46/109/28 44/110/28 43/111/28 45/112/28
f 49/113/29 47/114/29 48/115/29 50/116/29
f 43/117/30 44/118/30 48/119/30 47/120/30
f 46/121/31 45/122/31 49/123/31 50/124/31
f 45/125/32 43/126/32 47/127/32 49/128/32
f 50/129/33 48/130/33 44/131/33 46/132/33
f 52/133/34 51/134/34 54/135/34 53/136/34
f 55/137/35 56/138/35 57/139/35 58/140/35
f 52/141/36 56/142/36 51/143/36 55/144/36
f 53/145/37 57/146/37 54/147/37 58/148/37
f 53/149/38 51/150/38 55/151/38 57/152/38
f 58/153/39 56/154/39 52/155/39 54/156/39
f 60/157/40 59/158/40 62/159/40 61/160/40
f 63/161/41 64/162/41 65/163/41 66/164/41
f 60/165/42 64/166/42 59/167/42 63/168/42
f 61/169/43 65/170/43 62/171/43 66/172/43
f 61/173/44 59/174/44 63/175/44 65/176/44
f 66/177/45 64/178/45 60/179/45 62/180/45
f 68/181/46 67/182/46 70/183/46 69/184/46
f 71/185/47 72/186/47 73/187/47 74/188/47
f 68/189/48 72/190/48 67/191/48 71/192/48
f 69/193/49 73/194/49 70/195/49 74/196/49
f 69/197/50 67/198/50 71/199/50 73/200/50
f 74/201/51 72/202/51 68/203/51 70/204/51
f 78/205/52 76/206/52 75/207/52 77/208/52
f 81/209/53 79/210/53 80/211/53 82/212/53
f 75/213/54 76/214/54 80/215/54 79/216/54
f 78/217/55 77/218/55 81/219/55 82/220/55
f 77/221/56 75/222/56 79/223/56 81/224/56
f 82/225/57 80/226/57 76/227/57 78/228/57
f 86/229/58 84/230/58 83/231/58 85/232/58
f 89/233/59 87/234/59 88/235/59 90/236/59
f 83/237/60 84/238/60 88/239/60 87/240/60
f 86/241/61 85/242/61 89/243/61 90/244/61
f 85/245/62 83/246/62 87/247/62 89/248/62
f 90/249/63 88/250/63 84/251/63 86/252/63
f 94/253/64 92/254/64 91/255/64 93/256/64
f 97/257/65 95/258/65 96/259/65 98/260/65
f 91/261/66 92/262/66 96/263/66 95/264/66
f 94/265/67 93/266/67 97/267/67 98/268/67
f 93/269/68 91/270/68 95/271/68 97/272/68
f 98/273/69 96/274/69 92/275/69 94/276/69
f 100/277/70 99/278/70 102/279/70 101/280/70
f 103/281/71 104/282/71 105/283/71 106/284/71
f 100/285/72 104/286/72 99/287/72 103/288/72
f 101/289/73 105/290/73 102/291/73 106/292/73
f 101/293/74 99/294/74 103/295/74 105/296/74
f 106/297/75 104/298/75 100/299/75 102/300/75
f 107/301/76 108/302/76 109/303/76 110/304/76
f 112/305/77 111/306/77 114/307/77 113/308/77
f 113/309/78 117/310/78 114/311/78 118/312/78
f 113/313/79 111/314/79 115/315/79 117/316/79
f 118/317/80 116/318/80 112/319/80 114/320/80
f 120/321/81 119/322/81 122/323/81 121/324/81
f 121/325/82 125/326/82 122/327/82 126/328/82
f 121/329/83 119/330/83 123/331/83 125/332/83
f 126/333/84 124/334/84 120/335/84 122/336/84