# Made in Blockbench 4.9.4
mtllib dyespria_plant_thick.mtl

o cube
v 0.8728349330271445 1 0.12153397801643784
v 0.8728349330271445 1 0.12153397801643784
v 0.16572815184059714 1 0.8286407592029854
v 0.16572815184059714 1 0.8286407592029854
v 0.16572815184059714 0 0.8286407592029854
v 0.16572815184059714 0 0.8286407592029854
v 0.8728349330271447 1 0.8728349330271448
v 0.8728349330271447 1 0.8728349330271448
v 0.16572815184059714 1 0.16572815184059708
v 0.16572815184059714 1 0.16572815184059708
v 0.16572815184059714 0 0.16572815184059708
v 0.16572815184059714 0 0.16572815184059708
v 0.14563176196422767 0.9229854345603979 0.7467449044989292
v 0.14563176196422783 0.9229854345603979 0.24674490449892927
v 0.4991851525575013 0.5694320439671242 0.7467449044989293
v 0.4991851525575015 0.5694320439671242 0.24674490449892938
v 0.10143758814006848 0.8787912607362387 0.7467449044989292
v 0.10143758814006859 0.8787912607362387 0.24674490449892927
v 0.4549909787333421 0.525237870142965 0.7467449044989294
v 0.45499097873334227 0.525237870142965 0.24674490449892938
v 1.0178709611336474 0.849458857261409 0.7451824044989295
v 1.0178709611336476 0.849458857261409 0.24518240449892958
v 0.9939532466108293 0.7917163864794536 0.7451824044989295
v 0.9939532466108296 0.7917163864794536 0.24518240449892958
v 0.8446435487877815 0.9212120008298633 0.7451824044989296
v 0.8446435487877815 0.9212120008298633 0.24518240449892964
v 0.8207258342649633 0.8634695300479079 0.7451824044989295
v 0.8207258342649635 0.8634695300479079 0.24518240449892942
v 0.14822193321788724 0.9243370008298633 0.7483074044989293
v 0.14822193321788746 0.9243370008298633 0.24830740449892927
v 0.1721396477407054 0.8665945300479079 0.7483074044989292
v 0.1721396477407055 0.8665945300479079 0.24830740449892916
v -0.025005479127979124 0.852583857261409 0.7483074044989291
v -0.02500547912797879 0.852583857261409 0.2483074044989292
v -0.0010877646051609124 0.7948413864794536 0.7483074044989291
v -0.0010877646051608014 0.7948413864794536 0.24830740449892916
v 0.8918720676897595 0.876110434560398 0.7467449044989294
v 0.8918720676897597 0.8761104345603982 0.2467449044989295
v 0.5383186770964857 0.5225570439671243 0.7467449044989294
v 0.5383186770964858 0.5225570439671243 0.24674490449892933
v 0.8476778938656002 0.9203046083845573 0.7467449044989294
v 0.8476778938656004 0.9203046083845573 0.24674490449892955
v 0.4941245032723265 0.5667512177912836 0.7467449044989294
v 0.4941245032723267 0.5667512177912837 0.24674490449892938
v 0.6757062796532942 0.7403648089978588 0.2506235338448799
v 0.6757062796532942 0.7403648089978588 0.2506235338448799
v 0.49892958435665735 0.563588113701222 0.2506235338448798
v 0.49892958435665735 0.563588113701222 0.2506235338448798
v 0.49892958435665735 0.9171415042944957 0.2506235338448798
v 0.49892958435665735 0.9171415042944957 0.2506235338448798
v 0.3221528890600205 0.7403648089978588 0.2506235338448798
v 0.3221528890600205 0.7403648089978588 0.2506235338448798
v 0.6712868622708781 0.7385342263802748 0.7443735338448798
v 0.6712868622708781 0.7385342263802748 0.7443735338448798
v 0.49451016697424127 0.5617575310836379 0.7443735338448798
v 0.49451016697424127 0.5617575310836379 0.7443735338448798
v 0.49451016697424127 0.9153109216769116 0.7443735338448798
v 0.49451016697424127 0.9153109216769116 0.7443735338448798
v 0.31773347167760435 0.7385342263802748 0.7443735338448796
v 0.31773347167760435 0.7385342263802748 0.7443735338448796
v 0.7433077410028344 0.7385342263802747 0.32264441257683607
v 0.7433077410028344 0.7385342263802747 0.32264441257683607
v 0.7433077410028341 0.5617575310836379 0.49942110787347294
v 0.7433077410028341 0.5617575310836379 0.49942110787347294
v 0.7433077410028344 0.9153109216769116 0.4994211078734728
v 0.7433077410028344 0.9153109216769116 0.4994211078734728
v 0.7433077410028341 0.7385342263802748 0.6761978031701099
v 0.7433077410028341 0.7385342263802748 0.6761978031701099
v 0.7456791116568836 0.9229854345603978 0.8482995128834868
v 0.24567911165688366 0.9229854345603978 0.8482995128834865
v 0.7456791116568839 0.5694320439671242 0.494746122290213
v 0.24567911165688394 0.5694320439671241 0.4947461222902126
v 0.7456791116568836 0.8787912607362387 0.892493686707646
v 0.24567911165688372 0.8787912607362386 0.8924936867076456
v 0.7456791116568839 0.525237870142965 0.5389402961143721
v 0.24567911165688394 0.525237870142965 0.5389402961143718
v 0.7441166116568841 0.8494588572614089 -0.023939686285933126
v 0.24411661165688414 0.8494588572614089 -0.02393968628593357
v 0.744116611656884 0.7917163864794535 -0.00002197176311530269
v 0.24411661165688414 0.7917163864794535 -0.0000219717631153582
v 0.744116611656884 0.9212120008298632 0.14928772605993273
v 0.24411661165688403 0.9212120008298633 0.14928772605993262
v 0.744116611656884 0.8634695300479078 0.17320544058275072
v 0.24411661165688403 0.8634695300479078 0.17320544058275067
v 0.7472416116568836 0.9243370008298633 0.8457093416298269
v 0.24724161165688358 0.9243370008298631 0.8457093416298267
v 0.7472416116568836 0.8665945300479079 0.8217916271070087
v 0.24724161165688363 0.8665945300479078 0.8217916271070087
v 0.7472416116568837 0.8525838572614088 1.0189367539756935
v 0.24724161165688352 0.8525838572614088 1.018936753975693
v 0.7472416116568836 0.7948413864794535 0.9950190394528751
v 0.24724161165688352 0.7948413864794535 0.995019039452875
v 0.745679111656884 0.876110434560398 0.10205920715795447
v 0.24567911165688405 0.876110434560398 0.10205920715795436
v 0.7456791116568837 0.5225570439671243 0.4556125977512284
v 0.24567911165688378 0.5225570439671243 0.45561259775122814
v 0.7456791116568839 0.9203046083845572 0.14625338098211377
v 0.24567911165688405 0.9203046083845573 0.14625338098211355
v 0.7456791116568837 0.5667512177912836 0.49980677157538766
v 0.2456791116568839 0.5667512177912836 0.49980677157538744
v 0.24955774100283445 0.7403648089978588 0.31822499519441994
v 0.24955774100283445 0.7403648089978588 0.31822499519441994
v 0.2495577410028343 0.563588113701222 0.4950016904910568
v 0.2495577410028343 0.563588113701222 0.4950016904910568
v 0.2495577410028343 0.9171415042944957 0.49500169049105663
v 0.2495577410028343 0.9171415042944957 0.49500169049105663
v 0.24955774100283423 0.740364808997859 0.6717783857876936
v 0.24955774100283423 0.740364808997859 0.6717783857876936
v 0.8728349330271445 1 0.12153397801643784
v 0.8728349330271445 1 0.12153397801643784
v 0.8728349330271445 -0.0625 0.12153397801643784
v 0.8728349330271445 -0.0625 0.12153397801643784
v 0.16572815184059708 1 0.8286407592029854
v 0.16572815184059708 1 0.8286407592029854
v 0.16572815184059708 -0.0625 0.8286407592029854
v 0.16572815184059708 -0.0625 0.8286407592029854
v 0.8728349330271448 1 0.8728349330271448
v 0.8728349330271448 1 0.8728349330271448
v 0.8728349330271448 -0.0625 0.8728349330271448
v 0.8728349330271448 -0.0625 0.8728349330271448
v 0.1657281518405972 1 0.16572815184059708
v 0.1657281518405972 1 0.16572815184059708
v 0.1657281518405972 -0.0625 0.16572815184059708
v 0.1657281518405972 -0.0625 0.16572815184059708
vt 0 1
vt 0 1
vt 0 0.75
vt 0 0.75
vt 0 1
vt 0.25 1
vt 0 1
vt 0.25 1
vt 0 1
vt 0 1
vt 0 0.75
vt 0 0.75
vt 0 1
vt 0 1
vt 0.25 1
vt 0.25 1
vt 0.125 0.375
vt 0.125 0.5
vt 0 0.5
vt 0 0.375
vt 0.625 0.875
vt 0.625 1
vt 0.5 1
vt 0.5 0.875
vt 0 1
vt 0 0.875
vt 0 0.875
vt 0 1
vt 0.1875 0.390625
vt 0.1875 0.375
vt 0.140625 0.375
vt 0.140625 0.390625
vt 0.1875 0.390625
vt 0.1875 0.375
vt 0.140625 0.375
vt 0.140625 0.390625
vt 0.1875 0.390625
vt 0.1875 0.375
vt 0.140625 0.375
vt 0.140625 0.390625
vt 0.203125 0.453125
vt 0.203125 0.4375
vt 0.15625 0.4375
vt 0.15625 0.453125
vt 0.125 1
vt 0.125 1
vt 0 1
vt 0 1
vt 0.25 0.5
vt 0.25 0.375
vt 0.296875 0.375
vt 0.296875 0.5
vt 0.5 0.609375
vt 0.5 0.734375
vt 0.546875 0.734375
vt 0.546875 0.609375
vt 0.1875 0.390625
vt 0.1875 0.375
vt 0.140625 0.375
vt 0.140625 0.390625
vt 0.1875 0.390625
vt 0.1875 0.375
vt 0.140625 0.375
vt 0.140625 0.390625
vt 0.125 1
vt 0.125 1
vt 0 1
vt 0 1
vt 0.203125 0.453125
vt 0.203125 0.4375
vt 0.15625 0.4375
vt 0.15625 0.453125
vt 0.296875 0.5
vt 0.296875 0.375
vt 0.34375 0.375
vt 0.34375 0.5
vt 0.34375 0.375
vt 0.34375 0.5
vt 0.390625 0.5
vt 0.390625 0.375
vt 0.1875 0.390625
vt 0.1875 0.375
vt 0.140625 0.375
vt 0.140625 0.390625
vt 0.1875 0.390625
vt 0.1875 0.375
vt 0.140625 0.375
vt 0.140625 0.390625
vt 0.25 0.375
vt 0.25 0.5
vt 0.125 0.5
vt 0.125 0.375
vt 0.625 0.734375
vt 0.625 0.859375
vt 0.5 0.859375
vt 0.5 0.734375
vt 0 1
vt 0 0.875
vt 0 0.875
vt 0 1
vt 0.1875 0.390625
vt 0.1875 0.375
vt 0.140625 0.375
vt 0.140625 0.390625
vt 0.1875 0.390625
vt 0.1875 0.375
vt 0.140625 0.375
vt 0.140625 0.390625
vt 0.1875 0.390625
vt 0.1875 0.375
vt 0.140625 0.375
vt 0.140625 0.390625
vt 0 1
vt 0 1
vt 0 0.9375
vt 0 0.9375
vt 0 1
vt 0 1
vt 0 0.9375
vt 0 0.9375
vt 0 1
vt 0.0625 1
vt 0 1
vt 0.0625 1
vt 0 1
vt 0.0625 1
vt 0 1
vt 0.0625 1
vt 0.49259690463264627 0.5566992393712087
vt 0.5526757606287913 0.5394719046326463
vt 0.5699030953673537 0.5995507606287913
vt 0.5098242393712087 0.6167780953673537
vt 0.453125 0.4375
vt 0.453125 0.5
vt 0.390625 0.5
vt 0.390625 0.4375
vt 0 1
vt 0 1
vt 0 0.9375
vt 0 0.9375
vt 0 1
vt 0 1
vt 0 0.9375
vt 0 0.9375
vt 0 1
vt 0.0625 1
vt 0 1
vt 0.0625 1
vt 0 1
vt 0.0625 1
vt 0 1
vt 0.0625 1
vt 0.515625 0.484375
vt 0.578125 0.484375
vt 0.578125 0.546875
vt 0.515625 0.546875
vt 0.515625 0.4375
vt 0.515625 0.5
vt 0.453125 0.5
vt 0.453125 0.4375
vt 0 1
vt 0 1
vt 0 0.9375
vt 0 0.9375
vt 0 1
vt 0 1
vt 0 0.9375
vt 0 0.9375
vt 0 1
vt 0.0625 1
vt 0 1
vt 0.0625 1
vt 0 1
vt 0.0625 1
vt 0 1
vt 0.0625 1
vt 0.515625 0.484375
vt 0.578125 0.484375
vt 0.578125 0.546875
vt 0.515625 0.546875
vt 0.515625 0.4375
vt 0.515625 0.5
vt 0.453125 0.5
vt 0.453125 0.4375
vt 0.125 0.375
vt 0.125 0.5
vt 0 0.5
vt 0 0.375
vt 0.625 0.875
vt 0.625 1
vt 0.5 1
vt 0.5 0.875
vt 0 1
vt 0 0.875
vt 0 0.875
vt 0 1
vt 0.1875 0.390625
vt 0.1875 0.375
vt 0.140625 0.375
vt 0.140625 0.390625
vt 0.1875 0.390625
vt 0.1875 0.375
vt 0.140625 0.375
vt 0.140625 0.390625
vt 0.1875 0.390625
vt 0.1875 0.375
vt 0.140625 0.375
vt 0.140625 0.390625
vt 0.203125 0.453125
vt 0.203125 0.4375
vt 0.15625 0.4375
vt 0.15625 0.453125
vt 0.125 1
vt 0.125 1
vt 0 1
vt 0 1
vt 0.25 0.5
vt 0.25 0.375
vt 0.296875 0.375
vt 0.296875 0.5
vt 0.5 0.609375
vt 0.5 0.734375
vt 0.546875 0.734375
vt 0.546875 0.609375
vt 0.1875 0.390625
vt 0.1875 0.375
vt 0.140625 0.375
vt 0.140625 0.390625
vt 0.1875 0.390625
vt 0.1875 0.375
vt 0.140625 0.375
vt 0.140625 0.390625
vt 0.125 1
vt 0.125 1
vt 0 1
vt 0 1
vt 0.203125 0.453125
vt 0.203125 0.4375
vt 0.15625 0.4375
vt 0.15625 0.453125
vt 0.296875 0.5
vt 0.296875 0.375
vt 0.34375 0.375
vt 0.34375 0.5
vt 0.34375 0.375
vt 0.34375 0.5
vt 0.390625 0.5
vt 0.390625 0.375
vt 0.1875 0.390625
vt 0.1875 0.375
vt 0.140625 0.375
vt 0.140625 0.390625
vt 0.1875 0.390625
vt 0.1875 0.375
vt 0.140625 0.375
vt 0.140625 0.390625
vt 0.25 0.375
vt 0.25 0.5
vt 0.125 0.5
vt 0.125 0.375
vt 0.625 0.734375
vt 0.625 0.859375
vt 0.5 0.859375
vt 0.5 0.734375
vt 0 1
vt 0 0.875
vt 0 0.875
vt 0 1
vt 0.1875 0.390625
vt 0.1875 0.375
vt 0.140625 0.375
vt 0.140625 0.390625
vt 0.1875 0.390625
vt 0.1875 0.375
vt 0.140625 0.375
vt 0.140625 0.390625
vt 0.1875 0.390625
vt 0.1875 0.375
vt 0.140625 0.375
vt 0.140625 0.390625
vt 0 1
vt 0 1
vt 0 0.9375
vt 0 0.9375
vt 0 1
vt 0 1
vt 0 0.9375
vt 0 0.9375
vt 0 1
vt 0.0625 1
vt 0 1
vt 0.0625 1
vt 0 1
vt 0.0625 1
vt 0 1
vt 0.0625 1
vt 0.49187270279155937 0.5580612649399935
vt 0.5513137350600065 0.5387477027915594
vt 0.5706272972084406 0.5981887350600065
vt 0.5111862649399935 0.6175022972084406
vt 0.4531249999999999 0.4374999999999999
vt 0.4531250000000001 0.5
vt 0.3906250000000001 0.5
vt 0.3906249999999999 0.4375
vt 0 1
vt 0 1
vt 0 0.75
vt 0 0.75
vt 0 1
vt 0.25 1
vt 0 1
vt 0.25 1
vt 0.5 0.46875
vt 0.5 0.734375
vt 0.25 0.734375
vt 0.25 0.46875
vt 0.25 0.734375
vt 0.25 1
vt 0.5 1
vt 0.5 0.734375
vt 0 1
vt 0 1
vt 0 0.75
vt 0 0.75
vt 0 1
vt 0.25 1
vt 0 1
vt 0.25 1
vt 0.25 0.46875
vt 0.25 0.734375
vt 0 0.734375
vt 0 0.46875
vt 0 0.734375
vt 0 1
vt 0.25 1
vt 0.25 0.734375
vn 0 0 0
vn 0 0 0
vn 0 0 0
vn 0 0 0
vn 0.7071067811865475 0.7071067811865476 2.7755575615628914e-16
vn -0.7071067811865477 -0.7071067811865475 -1.6653345369377348e-16
vn -0.7071067811865477 0.7071067811865475 -2.220446049250313e-16
vn 0.7071067811865479 -0.7071067811865471 3.3306690738754696e-16
vn -5.551115123125783e-16 -4.440892098500627e-16 1
vn 8.326672684688676e-16 4.440892098500623e-16 -1
vn 0.9238795325112874 -0.3826834323650887 4.440892098500627e-16
vn -0.9238795325112859 0.3826834323650917 5.5511151231257815e-17
vn 0.3826834323650899 0.9238795325112867 1.6653345369377348e-16
vn -0.38268343236509017 -0.9238795325112867 -2.220446049250313e-16
vn 1.0547118733938987e-15 9.992007221626438e-16 1
vn 1.2212453270876722e-15 3.5527136788005065e-15 -1
vn 0.9238795325112873 0.3826834323650886 3.885780586188048e-16
vn -0.923879532511286 -0.38268343236509184 -3.885780586188048e-16
vn -0.3826834323650895 0.9238795325112868 -1.6653345369377348e-16
vn 0.3826834323650897 -0.9238795325112867 5.551115123125783e-17
vn 0 -2.1464311809419696e-15 1
vn 1.1102230246251565e-16 7.401486830834382e-16 -1
vn 0.7071067811865475 -0.7071067811865476 5.551115123125783e-17
vn -0.7071067811865475 0.7071067811865476 -2.7755575615628914e-16
vn 0.7071067811865468 0.7071067811865483 3.885780586188048e-16
vn -0.7071067811865478 -0.7071067811865474 -1.1102230246251565e-16
vn -2.220446049250313e-16 0 1
vn 2.775557561562892e-16 0 -1
vn 0 0 0
vn 0 0 0
vn 0 0 0
vn 0 0 0
vn -9.43689570931383e-16 0 1
vn 4.440892098500626e-16 -4.996003610813205e-16 -1
vn 0 0 0
vn 0 0 0
vn 0 0 0
vn 0 0 0
vn -2.220446049250313e-16 0 1
vn 6.661338147750939e-16 5.551115123125783e-16 -1
vn 0 0 0
vn 0 0 0
vn 0 0 0
vn 0 0 0
vn 1 -3.330669073875468e-16 5.551115123125783e-16
vn -1 3.330669073875469e-16 -4.996003610813204e-16
vn 4.996003610813204e-16 0.7071067811865476 -0.7071067811865475
vn -2.775557561562892e-16 -0.7071067811865478 0.7071067811865474
vn -4.996003610813204e-16 0.7071067811865475 0.7071067811865477
vn 6.661338147750939e-16 -0.7071067811865468 -0.7071067811865482
vn 1 1.7763568394002536e-15 -3.885780586188048e-16
vn -1 -4.440892098500627e-16 1.1102230246251565e-16
vn 5.551115123125783e-16 -0.38268343236509084 -0.9238795325112863
vn -1.6653345369377348e-16 0.38268343236508917 0.923879532511287
vn 3.0531133177191805e-16 0.9238795325112865 -0.3826834323650904
vn 0 -0.9238795325112868 0.38268343236509
vn 1 -2.0724163126336344e-15 1.4432899320127039e-15
vn -1 -2.220446049250312e-16 -5.551115123125783e-16
vn 3.3306690738754696e-16 0.38268343236508967 -0.9238795325112868
vn -5.551115123125784e-16 -0.3826834323650919 0.9238795325112861
vn -3.885780586188048e-16 0.9238795325112868 0.38268343236508967
vn 3.0531133177191805e-16 -0.9238795325112867 -0.38268343236508984
vn 1 -1.1472304587793273e-15 -5.551115123125782e-16
vn -1 1.6653345369377368e-16 -3.885780586188048e-16
vn 5.551115123125783e-17 -0.7071067811865476 -0.7071067811865475
vn -1.1102230246251565e-16 0.7071067811865478 0.7071067811865472
vn 1.1102230246251565e-16 0.7071067811865469 -0.7071067811865481
vn -3.885780586188048e-16 -0.7071067811865476 0.7071067811865475
vn 1 0 8.326672684688674e-16
vn -1 -4.440892098500627e-16 -5.551115123125783e-16
vn 0 0 0
vn 0 0 0
vn 0 0 0
vn 0 0 0
vn 1 5.551115123125816e-17 7.216449660063518e-16
vn -1 -3.330669073875472e-16 -6.661338147750939e-16
vn 0 0 0
vn 0 0 0
vn 0.7071067811865476 0 0.7071067811865475
vn -0.7071067811865476 0 -0.7071067811865475
vn 0 0 0
vn 0 0 0
vn -0.7071067811865476 0 0.7071067811865475
vn 0.7071067811865476 0 -0.7071067811865475
usemtl m_1e99b131-494f-3249-1f69-82905835cb6a
f 3/1/1 4/2/1 5/3/1 6/4/1
f 2/5/2 4/6/2 1/7/2 3/8/2
f 9/9/3 10/10/3 11/11/3 12/12/3
f 7/13/4 8/14/4 10/15/4 9/16/4
usemtl m_1c3902cb-2512-be19-e68a-4fe0145e3cbd
f 16/17/5 14/18/5 13/19/5 15/20/5
f 19/21/6 17/22/6 18/23/6 20/24/6
f 13/25/7 14/26/7 18/27/7 17/28/7
f 16/29/8 15/30/8 19/31/8 20/32/8
f 15/33/9 13/34/9 17/35/9 19/36/9
f 20/37/10 18/38/10 14/39/10 16/40/10
f 24/41/11 22/42/11 21/43/11 23/44/11
f 27/45/12 25/46/12 26/47/12 28/48/12
f 21/49/13 22/50/13 26/51/13 25/52/13
f 24/53/14 23/54/14 27/55/14 28/56/14
f 23/57/15 21/58/15 25/59/15 27/60/15
f 28/61/16 26/62/16 22/63/16 24/64/16
f 32/65/17 30/66/17 29/67/17 31/68/17
f 35/69/18 33/70/18 34/71/18 36/72/18
f 29/73/19 30/74/19 34/75/19 33/76/19
f 32/77/20 31/78/20 35/79/20 36/80/20
f 31/81/21 29/82/21 33/83/21 35/84/21
f 36/85/22 34/86/22 30/87/22 32/88/22
f 40/89/23 38/90/23 37/91/23 39/92/23
f 43/93/24 41/94/24 42/95/24 44/96/24
f 37/97/25 38/98/25 42/99/25 41/100/25
f 40/101/26 39/102/26 43/103/26 44/104/26
f 39/105/27 37/106/27 41/107/27 43/108/27
f 44/109/28 42/110/28 38/111/28 40/112/28
f 46/113/29 45/114/29 48/115/29 47/116/29
f 49/117/30 50/118/30 51/119/30 52/120/30
f 46/121/31 50/122/31 45/123/31 49/124/31
f 47/125/32 51/126/32 48/127/32 52/128/32
f 47/129/33 45/130/33 49/131/33 51/132/33
f 52/133/34 50/134/34 46/135/34 48/136/34
f 54/137/35 53/138/35 56/139/35 55/140/35
f 57/141/36 58/142/36 59/143/36 60/144/36
f 54/145/37 58/146/37 53/147/37 57/148/37
f 55/149/38 59/150/38 56/151/38 60/152/38
f 55/153/39 53/154/39 57/155/39 59/156/39
f 60/157/40 58/158/40 54/159/40 56/160/40
f 62/161/41 61/162/41 64/163/41 63/164/41
f 65/165/42 66/166/42 67/167/42 68/168/42
f 62/169/43 66/170/43 61/171/43 65/172/43
f 63/173/44 67/174/44 64/175/44 68/176/44
f 63/177/45 61/178/45 65/179/45 67/180/45
f 68/181/46 66/182/46 62/183/46 64/184/46
f 72/185/47 70/186/47 69/187/47 71/188/47
f 75/189/48 73/190/48 74/191/48 76/192/48
f 69/193/49 70/194/49 74/195/49 73/196/49
f 72/197/50 71/198/50 75/199/50 76/200/50
f 71/201/51 69/202/51 73/203/51 75/204/51
f 76/205/52 74/206/52 70/207/52 72/208/52
f 80/209/53 78/210/53 77/211/53 79/212/53
f 83/213/54 81/214/54 82/215/54 84/216/54
f 77/217/55 78/218/55 82/219/55 81/220/55
f 80/221/56 79/222/56 83/223/56 84/224/56
f 79/225/57 77/226/57 81/227/57 83/228/57
f 84/229/58 82/230/58 78/231/58 80/232/58
f 88/233/59 86/234/59 85/235/59 87/236/59
f 91/237/60 89/238/60 90/239/60 92/240/60
f 85/241/61 86/242/61 90/243/61 89/244/61
f 88/245/62 87/246/62 91/247/62 92/248/62
f 87/249/63 85/250/63 89/251/63 91/252/63
f 92/253/64 90/254/64 86/255/64 88/256/64
f 96/257/65 94/258/65 93/259/65 95/260/65
f 99/261/66 97/262/66 98/263/66 100/264/66
f 93/265/67 94/266/67 98/267/67 97/268/67
f 96/269/68 95/270/68 99/271/68 100/272/68
f 95/273/69 93/274/69 97/275/69 99/276/69
f 100/277/70 98/278/70 94/279/70 96/280/70
f 102/281/71 101/282/71 104/283/71 103/284/71
f 105/285/72 106/286/72 107/287/72 108/288/72
f 102/289/73 106/290/73 101/291/73 105/292/73
f 103/293/74 107/294/74 104/295/74 108/296/74
f 103/297/75 101/298/75 105/299/75 107/300/75
f 108/301/76 106/302/76 102/303/76 104/304/76
usemtl m_1e99b131-494f-3249-1f69-82905835cb6a
f 110/305/77 109/306/77 112/307/77 111/308/77
f 111/309/78 115/310/78 112/311/78 116/312/78
f 111/313/79 109/314/79 113/315/79 115/316/79
f 116/317/80 114/318/80 110/319/80 112/320/80
f 118/321/81 117/322/81 120/323/81 119/324/81
f 119/325/82 123/326/82 120/327/82 124/328/82
f 119/329/83 117/330/83 121/331/83 123/332/83
f 124/333/84 122/334/84 118/335/84 120/336/84