# Made in Blockbench 4.9.4
mtllib dyespria_plant_thick_rotated.mtl

o cube
v 0.8728349330271445 1 0.12153397801643784
v 0.8728349330271445 1 0.12153397801643784
v 0.8728349330271445 0 0.12153397801643784
v 0.8728349330271445 0 0.12153397801643784
v 0.16572815184059714 1 0.8286407592029854
v 0.16572815184059714 1 0.8286407592029854
v 0.16572815184059714 0 0.8286407592029854
v 0.16572815184059714 0 0.8286407592029854
v 0.8728349330271447 1 0.8728349330271448
v 0.8728349330271447 1 0.8728349330271448
v 0.8728349330271447 0 0.8728349330271448
v 0.8728349330271447 0 0.8728349330271448
v 0.16572815184059714 1 0.16572815184059708
v 0.16572815184059714 1 0.16572815184059708
v 0.16572815184059714 0 0.16572815184059708
v 0.16572815184059714 0 0.16572815184059708
vt 0 1
vt 0 1
vt 0 0.75
vt 0 0.75
vt 0 1
vt 0 1
vt 0 0.75
vt 0 0.75
vt 0 1
vt 0.25 1
vt 0 1
vt 0.25 1
vt 0 1
vt 0.25 1
vt 0 1
vt 0.25 1
vt 0.5 0.5
vt 0.5 0.75
vt 0.25 0.75
vt 0.25 0.5
vt 0.25 0.75
vt 0.25 1
vt 0.5 1
vt 0.5 0.75
vt 0 1
vt 0 1
vt 0 0.75
vt 0 0.75
vt 0 1
vt 0 1
vt 0 0.75
vt 0 0.75
vt 0 1
vt 0 1
vt 0.25 1
vt 0.25 1
vt 0 1
vt 0 1
vt 0.25 1
vt 0.25 1
vt 0.25 0.5
vt 0.25 0.75
vt 0 0.75
vt 0 0.5
vt 0 0.75
vt 0 1
vt 0.25 1
vt 0.25 0.75
vn 0 0 0
vn 0 0 0
vn 0 0 0
vn 0 0 0
vn 0.7071067811865476 0 0.7071067811865475
vn -0.7071067811865476 0 -0.7071067811865475
vn 0 0 0
vn 0 0 0
vn 0 0 0
vn 0 0 0
vn -0.7071067811865476 0 0.7071067811865475
vn 0.7071067811865476 0 -0.7071067811865475
usemtl m_1e99b131-494f-3249-1f69-82905835cb6a
f 2/1/1 1/2/1 4/3/1 3/4/1
f 5/5/2 6/6/2 7/7/2 8/8/2
f 2/9/3 6/10/3 1/11/3 5/12/3
f 3/13/4 7/14/4 4/15/4 8/16/4
f 3/17/5 1/18/5 5/19/5 7/20/5
f 8/21/6 6/22/6 2/23/6 4/24/6
f 10/25/7 9/26/7 12/27/7 11/28/7
f 13/29/8 14/30/8 15/31/8 16/32/8
f 9/33/9 10/34/9 14/35/9 13/36/9
f 12/37/10 11/38/10 15/39/10 16/40/10
f 11/41/11 9/42/11 13/43/11 15/44/11
f 16/45/12 14/46/12 10/47/12 12/48/12
o cube_selection
v 0.14563176196422756 0.8917354345603979 0.7467449044989292
v 0.14563176196422778 0.8917354345603979 0.24674490449892927
v 0.4991851525575013 0.5381820439671242 0.7467449044989293
v 0.49918515255750145 0.5381820439671242 0.24674490449892933
v 0.10143758814006837 0.8475412607362387 0.7467449044989292
v 0.10143758814006854 0.8475412607362387 0.24674490449892927
v 0.4549909787333421 0.49398787014296497 0.7467449044989294
v 0.45499097873334227 0.49398787014296497 0.24674490449892933
v 1.0178709611336474 0.815083857261409 0.7467449044989295
v 1.0178709611336476 0.815083857261409 0.24674490449892955
v 0.9939532466108294 0.7573413864794536 0.7467449044989296
v 0.9939532466108296 0.7573413864794536 0.24674490449892955
v 0.8446435487877815 0.8868370008298633 0.7467449044989295
v 0.8446435487877815 0.8868370008298633 0.24674490449892955
v 0.8207258342649633 0.8290945300479079 0.7467449044989295
v 0.8207258342649634 0.8290945300479079 0.24674490449892944
v 0.14822193321788724 0.8899620008298632 0.7467449044989293
v 0.1482219332178874 0.8899620008298632 0.24674490449892922
v 0.17213964774070534 0.8322195300479078 0.7467449044989292
v 0.17213964774070545 0.8322195300479078 0.24674490449892916
v -0.025005479127979124 0.8182088572614089 0.746744904498929
v -0.025005479127978902 0.8182088572614089 0.24674490449892916
v -0.0010877646051610235 0.7604663864794535 0.7467449044989292
v -0.0010877646051608014 0.7604663864794535 0.24674490449892916
v 0.8918720676897595 0.844860434560398 0.7467449044989294
v 0.8918720676897596 0.8448604345603982 0.24674490449892944
v 0.5383186770964857 0.4913070439671244 0.7467449044989294
v 0.5383186770964858 0.4913070439671244 0.24674490449892933
v 0.8476778938656002 0.8890546083845573 0.7467449044989294
v 0.8476778938656004 0.8890546083845573 0.24674490449892944
v 0.4941245032723265 0.5355012177912836 0.7467449044989294
v 0.4941245032723267 0.5355012177912837 0.24674490449892933
v 0.6757062796532942 0.7091148089978588 0.2506235338448799
v 0.6757062796532942 0.7091148089978588 0.2506235338448799
v 0.49892958435665735 0.532338113701222 0.2506235338448798
v 0.49892958435665735 0.532338113701222 0.2506235338448798
v 0.49892958435665735 0.8858915042944957 0.2506235338448798
v 0.49892958435665735 0.8858915042944957 0.2506235338448798
v 0.3221528890600205 0.7091148089978588 0.2506235338448798
v 0.3221528890600205 0.7091148089978588 0.2506235338448798
v 0.6712868622708781 0.7072842263802748 0.7443735338448798
v 0.6712868622708781 0.7072842263802748 0.7443735338448798
v 0.4945101669742412 0.5305075310836379 0.7443735338448798
v 0.4945101669742412 0.5305075310836379 0.7443735338448798
v 0.4945101669742412 0.8840609216769116 0.7443735338448798
v 0.4945101669742412 0.8840609216769116 0.7443735338448798
v 0.31773347167760435 0.7072842263802748 0.7443735338448797
v 0.31773347167760435 0.7072842263802748 0.7443735338448797
v 0.7433077410028343 0.7072842263802747 0.322644412576836
v 0.7433077410028343 0.7072842263802747 0.322644412576836
v 0.7433077410028341 0.5305075310836379 0.4994211078734729
v 0.7433077410028341 0.5305075310836379 0.4994211078734729
v 0.7433077410028343 0.8840609216769116 0.4994211078734728
v 0.7433077410028343 0.8840609216769116 0.4994211078734728
v 0.7433077410028341 0.7072842263802748 0.6761978031701098
v 0.7433077410028341 0.7072842263802748 0.6761978031701098
v 0.7456791116568836 0.8917354345603978 0.8482995128834867
v 0.24567911165688372 0.8917354345603978 0.8482995128834865
v 0.7456791116568838 0.5381820439671242 0.49474612229021286
v 0.2456791116568839 0.5381820439671241 0.4947461222902126
v 0.7456791116568836 0.8475412607362387 0.8924936867076458
v 0.24567911165688372 0.8475412607362386 0.8924936867076456
v 0.7456791116568838 0.49398787014296497 0.538940296114372
v 0.2456791116568839 0.4939878701429649 0.5389402961143718
v 0.7456791116568842 0.8150838572614089 -0.023939686285933237
v 0.2456791116568841 0.8150838572614089 -0.02393968628593357
v 0.745679111656884 0.7573413864794535 -0.000021971763115247178
v 0.24567911165688416 0.7573413864794535 -0.0000219717631153582
v 0.7456791116568839 0.8868370008298632 0.14928772605993273
v 0.24567911165688405 0.8868370008298633 0.14928772605993257
v 0.7456791116568839 0.8290945300479078 0.17320544058275084
v 0.24567911165688405 0.8290945300479078 0.17320544058275067
v 0.7456791116568837 0.8899620008298632 0.8457093416298269
v 0.24567911165688366 0.8899620008298631 0.8457093416298267
v 0.7456791116568836 0.8322195300479078 0.8217916271070087
v 0.24567911165688366 0.8322195300479077 0.8217916271070086
v 0.7456791116568835 0.8182088572614088 1.0189367539756933
v 0.2456791116568836 0.8182088572614088 1.018936753975693
v 0.7456791116568835 0.7604663864794534 0.9950190394528751
v 0.2456791116568836 0.7604663864794534 0.9950190394528748
v 0.7456791116568839 0.844860434560398 0.10205920715795452
v 0.24567911165688405 0.844860434560398 0.10205920715795436
v 0.7456791116568837 0.4913070439671243 0.4556125977512284
v 0.24567911165688378 0.4913070439671244 0.4556125977512282
v 0.7456791116568839 0.8890546083845572 0.14625338098211377
v 0.245679111656884 0.8890546083845573 0.14625338098211355
v 0.7456791116568837 0.5355012177912836 0.4998067715753876
v 0.24567911165688383 0.5355012177912836 0.4998067715753874
v 0.24955774100283437 0.7091148089978588 0.3182249951944199
v 0.24955774100283437 0.7091148089978588 0.3182249951944199
v 0.24955774100283426 0.532338113701222 0.49500169049105675
v 0.24955774100283426 0.532338113701222 0.49500169049105675
v 0.24955774100283432 0.8858915042944957 0.4950016904910567
v 0.24955774100283432 0.8858915042944957 0.4950016904910567
v 0.2495577410028342 0.709114808997859 0.6717783857876936
v 0.2495577410028342 0.709114808997859 0.6717783857876936
vt 0.125 0.375
vt 0.125 0.5
vt 0 0.5
vt 0 0.375
vt 0.625 0.875
vt 0.625 1
vt 0.5 1
vt 0.5 0.875
vt 0 1
vt 0 0.875
vt 0 0.875
vt 0 1
vt 0 0.875
vt 0 1
vt 0 1
vt 0 0.875
vt 0.1875 0.390625
vt 0.1875 0.375
vt 0.140625 0.375
vt 0.140625 0.390625
vt 0.1875 0.390625
vt 0.1875 0.375
vt 0.140625 0.375
vt 0.140625 0.390625
vt 0.1875 0.390625
vt 0.1875 0.375
vt 0.140625 0.375
vt 0.140625 0.390625
vt 0.125 1
vt 0.125 1
vt 0 1
vt 0 1
vt 0.25 0.5
vt 0.25 0.375
vt 0.296875 0.375
vt 0.296875 0.5
vt 0.5 0.609375
vt 0.5 0.734375
vt 0.546875 0.734375
vt 0.546875 0.609375
vt 0.1875 0.390625
vt 0.1875 0.375
vt 0.140625 0.375
vt 0.140625 0.390625
vt 0.1875 0.390625
vt 0.1875 0.375
vt 0.140625 0.375
vt 0.140625 0.390625
vt 0.125 1
vt 0.125 1
vt 0 1
vt 0 1
vt 0.1875 0.390625
vt 0.1875 0.375
vt 0.140625 0.375
vt 0.140625 0.390625
vt 0.296875 0.5
vt 0.296875 0.375
vt 0.34375 0.375
vt 0.34375 0.5
vt 0.34375 0.375
vt 0.34375 0.5
vt 0.390625 0.5
vt 0.390625 0.375
vt 0.1875 0.390625
vt 0.1875 0.375
vt 0.140625 0.375
vt 0.140625 0.390625
vt 0.1875 0.390625
vt 0.1875 0.375
vt 0.140625 0.375
vt 0.140625 0.390625
vt 0.25 0.375
vt 0.25 0.5
vt 0.125 0.5
vt 0.125 0.375
vt 0.625 0.734375
vt 0.625 0.859375
vt 0.5 0.859375
vt 0.5 0.734375
vt 0 1
vt 0 0.875
vt 0 0.875
vt 0 1
vt 0.1875 0.390625
vt 0.1875 0.375
vt 0.140625 0.375
vt 0.140625 0.390625
vt 0.1875 0.390625
vt 0.1875 0.375
vt 0.140625 0.375
vt 0.140625 0.390625
vt 0.1875 0.390625
vt 0.1875 0.375
vt 0.140625 0.375
vt 0.140625 0.390625
vt 0 1
vt 0 1
vt 0 0.9375
vt 0 0.9375
vt 0 1
vt 0 1
vt 0 0.9375
vt 0 0.9375
vt 0 1
vt 0.0625 1
vt 0 1
vt 0.0625 1
vt 0 1
vt 0 1
vt 0.0625 1
vt 0.0625 1
vt 0.49259690463264627 0.5566992393712087
vt 0.5526757606287913 0.5394719046326463
vt 0.5699030953673537 0.5995507606287913
vt 0.5098242393712087 0.6167780953673537
vt 0.453125 0.4375
vt 0.453125 0.5
vt 0.390625 0.5
vt 0.390625 0.4375
vt 0 1
vt 0 1
vt 0 0.9375
vt 0 0.9375
vt 0 1
vt 0 1
vt 0 0.9375
vt 0 0.9375
vt 0 1
vt 0.0625 1
vt 0 1
vt 0.0625 1
vt 0 1
vt 0.0625 1
vt 0 1
vt 0.0625 1
vt 0.515625 0.484375
vt 0.578125 0.484375
vt 0.578125 0.546875
vt 0.515625 0.546875
vt 0.515625 0.4375
vt 0.515625 0.5
vt 0.453125 0.5
vt 0.453125 0.4375
vt 0 1
vt 0 1
vt 0 0.9375
vt 0 0.9375
vt 0 1
vt 0 1
vt 0 0.9375
vt 0 0.9375
vt 0 1
vt 0.0625 1
vt 0 1
vt 0.0625 1
vt 0 1
vt 0 1
vt 0.0625 1
vt 0.0625 1
vt 0.515625 0.484375
vt 0.578125 0.484375
vt 0.578125 0.546875
vt 0.515625 0.546875
vt 0.515625 0.4375
vt 0.515625 0.5
vt 0.453125 0.5
vt 0.453125 0.4375
vt 0.125 0.375
vt 0.125 0.5
vt 0 0.5
vt 0 0.375
vt 0.625 0.875
vt 0.625 1
vt 0.5 1
vt 0.5 0.875
vt 0 1
vt 0 0.875
vt 0 0.875
vt 0 1
vt 0.1875 0.390625
vt 0.1875 0.375
vt 0.140625 0.375
vt 0.140625 0.390625
vt 0.1875 0.390625
vt 0.1875 0.375
vt 0.140625 0.375
vt 0.140625 0.390625
vt 0.1875 0.390625
vt 0.1875 0.375
vt 0.140625 0.375
vt 0.140625 0.390625
vt 0.1875 0.390625
vt 0.1875 0.375
vt 0.140625 0.375
vt 0.140625 0.390625
vt 0.125 1
vt 0.125 1
vt 0 1
vt 0 1
vt 0.25 0.5
vt 0.25 0.375
vt 0.296875 0.375
vt 0.296875 0.5
vt 0.5 0.609375
vt 0.5 0.734375
vt 0.546875 0.734375
vt 0.546875 0.609375
vt 0.1875 0.390625
vt 0.1875 0.375
vt 0.140625 0.375
vt 0.140625 0.390625
vt 0.1875 0.390625
vt 0.1875 0.375
vt 0.140625 0.375
vt 0.140625 0.390625
vt 0.125 1
vt 0.125 1
vt 0 1
vt 0 1
vt 0.1875 0.390625
vt 0.1875 0.375
vt 0.140625 0.375
vt 0.140625 0.390625
vt 0.296875 0.5
vt 0.296875 0.375
vt 0.34375 0.375
vt 0.34375 0.5
vt 0.34375 0.375
vt 0.34375 0.5
vt 0.390625 0.5
vt 0.390625 0.375
vt 0.1875 0.390625
vt 0.1875 0.375
vt 0.140625 0.375
vt 0.140625 0.390625
vt 0.1875 0.390625
vt 0.1875 0.375
vt 0.140625 0.375
vt 0.140625 0.390625
vt 0.25 0.375
vt 0.25 0.5
vt 0.125 0.5
vt 0.125 0.375
vt 0.625 0.734375
vt 0.625 0.859375
vt 0.5 0.859375
vt 0.5 0.734375
vt 0 1
vt 0 0.875
vt 0 0.875
vt 0 1
vt 0.1875 0.390625
vt 0.1875 0.375
vt 0.140625 0.375
vt 0.140625 0.390625
vt 0.1875 0.390625
vt 0.1875 0.375
vt 0.140625 0.375
vt 0.140625 0.390625
vt 0.1875 0.390625
vt 0.1875 0.375
vt 0.140625 0.375
vt 0.140625 0.390625
vt 0 1
vt 0 1
vt 0 0.9375
vt 0 0.9375
vt 0 1
vt 0 1
vt 0 0.9375
vt 0 0.9375
vt 0 1
vt 0.0625 1
vt 0 1
vt 0.0625 1
vt 0 1
vt 0 1
vt 0.0625 1
vt 0.0625 1
vt 0.49187270279155937 0.5580612649399935
vt 0.5513137350600065 0.5387477027915594
vt 0.5706272972084406 0.5981887350600065
vt 0.5111862649399935 0.6175022972084406
vt 0.4531249999999999 0.4374999999999999
vt 0.4531250000000001 0.5
vt 0.3906250000000001 0.5
vt 0.3906249999999999 0.4375
vn 0.7071067811865476 0.7071067811865475 3.873277056961794e-16
vn -0.7071067811865476 -0.7071067811865476 -2.7630540323366375e-16
vn -0.7071067811865476 0.7071067811865476 -3.7780349787078337e-16
vn 0.707106781186548 -0.7071067811865471 2.796727192030476e-16
vn 1.768266060929707e-18 3.14018491736755e-16 1
vn 2.337456027416365e-16 7.85046229341888e-17 -1
vn 0.9238795325112871 -0.3826834323650891 4.897095157372352e-16
vn -0.9238795325112862 0.3826834323650914 -1.843981839653166e-16
vn 0.3826834323650898 0.9238795325112867 2.0446577966926003e-16
vn -0.38268343236508967 -0.9238795325112868 -1.619793838938293e-16
vn 3.011642282540095e-16 7.07272807778018e-16 1
vn 7.185092703563276e-16 1.7544367817594799e-15 -1
vn 0.9238795325112872 0.3826834323650892 3.9256500108253395e-16
vn -0.9238795325112871 -0.3826834323650891 -2.8848159252392533e-16
vn -0.38268343236508945 0.9238795325112868 -1.619793838938292e-16
vn 0.38268343236508945 -0.9238795325112868 1.194929881183986e-16
vn -3.494600518234341e-16 -1.4574489055710456e-15 1
vn 3.122502256758253e-16 0 -1
vn 0.7071067811865476 -0.7071067811865476 1.0977194953989022e-16
vn -0.7071067811865476 0.7071067811865476 -3.318165544649216e-16
vn 0.7071067811865467 0.7071067811865485 4.56308120804972e-16
vn -0.7071067811865476 -0.7071067811865476 -2.796727192030474e-16
vn -2.729979142087309e-16 3.925231146709438e-17 1
vn 3.122502256758253e-16 0 -1
vn 0 0 0
vn 0 0 0
vn 0 0 0
vn 0 0 0
vn -3.122502256758253e-16 0 1
vn 3.122502256758253e-16 0 -1
vn 0 0 0
vn 0 0 0
vn 0 0 0
vn 0 0 0
vn -2.3374560274163653e-16 7.850462293418876e-17 1
vn 3.90754848610014e-16 7.850462293418877e-17 -1
vn 0 0 0
vn 0 0 0
vn 0 0 0
vn 0 0 0
vn 1 -1.5700924586837752e-16 3.122502256758254e-16
vn -1 2.355138688025662e-16 -3.907548486100141e-16
vn 3.3181655446492153e-16 0.7071067811865477 -0.7071067811865475
vn -2.2079425200240585e-16 -0.7071067811865477 0.7071067811865475
vn -3.7780349787078366e-16 0.7071067811865471 0.707106781186548
vn 5.151865880056139e-16 -0.7071067811865471 -0.707106781186548
vn 1 1.5700924586837754e-16 4.692594715442027e-16
vn -1 -7.850462293418866e-17 -3.90754848610014e-16
vn 4.96648409641142e-16 -0.3826834323650906 -0.9238795325112864
vn -3.092982742356469e-16 0.3826834323650899 0.9238795325112867
vn 2.0446577966926044e-16 0.9238795325112866 -0.3826834323650906
vn -1.1949298811839879e-16 -0.9238795325112868 0.38268343236509006
vn 1 -1.1175577393676004e-15 1.0956102627073829e-15
vn -1 0 -3.122502256758253e-16
vn 3.092982742356468e-16 0.3826834323650906 -0.9238795325112864
vn -2.884815925239251e-16 -0.3826834323650914 0.9238795325112862
vn -3.6712184968862053e-16 0.9238795325112868 0.38268343236508945
vn 3.671218496886208e-16 -0.9238795325112867 -0.3826834323650903
vn 1 -5.235819869907313e-16 4.1582793030049065e-16
vn -1 0 -3.122502256758253e-16
vn 3.318165544649215e-16 -0.7071067811865477 -0.7071067811865474
vn -2.207942520024058e-16 0.7071067811865478 0.7071067811865474
vn 2.9929887493659487e-16 0.7071067811865471 -0.707106781186548
vn -3.974296536043307e-16 -0.7071067811865472 0.7071067811865479
vn 1 1.177569344012832e-16 8.2253027474805225e-16
vn -1 -5.495323605393216e-16 -1.018791832083524e-15
vn 0 0 0
vn 0 0 0
vn 0 0 0
vn 0 0 0
vn 1 -1.5700924586837747e-16 4.692594715442028e-16
vn -1 1.5700924586837754e-16 -4.692594715442029e-16
usemtl m_1c3902cb-2512-be19-e68a-4fe0145e3cbd
f 20/49/13 18/50/13 17/51/13 19/52/13
f 23/53/14 21/54/14 22/55/14 24/56/14
f 17/57/15 18/58/15 22/59/15 21/60/15
f 20/61/16 19/62/16 23/63/16 24/64/16
f 19/65/17 17/66/17 21/67/17 23/68/17
f 24/69/18 22/70/18 18/71/18 20/72/18
f 28/73/19 26/74/19 25/75/19 27/76/19
f 31/77/20 29/78/20 30/79/20 32/80/20
f 25/81/21 26/82/21 30/83/21 29/84/21
f 28/85/22 27/86/22 31/87/22 32/88/22
f 27/89/23 25/90/23 29/91/23 31/92/23
f 32/93/24 30/94/24 26/95/24 28/96/24
f 36/97/25 34/98/25 33/99/25 35/100/25
f 39/101/26 37/102/26 38/103/26 40/104/26
f 33/105/27 34/106/27 38/107/27 37/108/27
f 36/109/28 35/110/28 39/111/28 40/112/28
f 35/113/29 33/114/29 37/115/29 39/116/29
f 40/117/30 38/118/30 34/119/30 36/120/30
f 44/121/31 42/122/31 41/123/31 43/124/31
f 47/125/32 45/126/32 46/127/32 48/128/32
f 41/129/33 42/130/33 46/131/33 45/132/33
f 44/133/34 43/134/34 47/135/34 48/136/34
f 43/137/35 41/138/35 45/139/35 47/140/35
f 48/141/36 46/142/36 42/143/36 44/144/36
f 50/145/37 49/146/37 52/147/37 51/148/37
f 53/149/38 54/150/38 55/151/38 56/152/38
f 50/153/39 54/154/39 49/155/39 53/156/39
f 52/157/40 51/158/40 55/159/40 56/160/40
f 51/161/41 49/162/41 53/163/41 55/164/41
f 56/165/42 54/166/42 50/167/42 52/168/42
f 58/169/43 57/170/43 60/171/43 59/172/43
f 61/173/44 62/174/44 63/175/44 64/176/44
f 58/177/45 62/178/45 57/179/45 61/180/45
f 59/181/46 63/182/46 60/183/46 64/184/46
f 59/185/47 57/186/47 61/187/47 63/188/47
f 64/189/48 62/190/48 58/191/48 60/192/48
f 66/193/49 65/194/49 68/195/49 67/196/49
f 69/197/50 70/198/50 71/199/50 72/200/50
f 66/201/51 70/202/51 65/203/51 69/204/51
f 68/205/52 67/206/52 71/207/52 72/208/52
f 67/209/53 65/210/53 69/211/53 71/212/53
f 72/213/54 70/214/54 66/215/54 68/216/54
f 76/217/55 74/218/55 73/219/55 75/220/55
f 79/221/56 77/222/56 78/223/56 80/224/56
f 73/225/57 74/226/57 78/227/57 77/228/57
f 76/229/58 75/230/58 79/231/58 80/232/58
f 75/233/59 73/234/59 77/235/59 79/236/59
f 80/237/60 78/238/60 74/239/60 76/240/60
f 84/241/61 82/242/61 81/243/61 83/244/61
f 87/245/62 85/246/62 86/247/62 88/248/62
f 81/249/63 82/250/63 86/251/63 85/252/63
f 84/253/64 83/254/64 87/255/64 88/256/64
f 83/257/65 81/258/65 85/259/65 87/260/65
f 88/261/66 86/262/66 82/263/66 84/264/66
f 92/265/67 90/266/67 89/267/67 91/268/67
f 95/269/68 93/270/68 94/271/68 96/272/68
f 89/273/69 90/274/69 94/275/69 93/276/69
f 92/277/70 91/278/70 95/279/70 96/280/70
f 91/281/71 89/282/71 93/283/71 95/284/71
f 96/285/72 94/286/72 90/287/72 92/288/72
f 100/289/73 98/290/73 97/291/73 99/292/73
f 103/293/74 101/294/74 102/295/74 104/296/74
f 97/297/75 98/298/75 102/299/75 101/300/75
f 100/301/76 99/302/76 103/303/76 104/304/76
f 99/305/77 97/306/77 101/307/77 103/308/77
f 104/309/78 102/310/78 98/311/78 100/312/78
f 106/313/79 105/314/79 108/315/79 107/316/79
f 109/317/80 110/318/80 111/319/80 112/320/80
f 106/321/81 110/322/81 105/323/81 109/324/81
f 108/325/82 107/326/82 111/327/82 112/328/82
f 107/329/83 105/330/83 109/331/83 111/332/83
f 112/333/84 110/334/84 106/335/84 108/336/84