# Made in Blockbench 4.9.4
mtllib dyespria_plant_thick.mtl

o cube
v 0.8728349330271445 1 0.12153397801643784
v 0.8728349330271445 1 0.12153397801643784
v 0.8728349330271445 0 0.12153397801643784
v 0.8728349330271445 0 0.12153397801643784
v 0.16572815184059714 1 0.8286407592029854
v 0.16572815184059714 1 0.8286407592029854
v 0.16572815184059714 0 0.8286407592029854
v 0.16572815184059714 0 0.8286407592029854
v 0.8728349330271447 1 0.8728349330271448
v 0.8728349330271447 1 0.8728349330271448
v 0.8728349330271447 0 0.8728349330271448
v 0.8728349330271447 0 0.8728349330271448
v 0.16572815184059714 1 0.16572815184059708
v 0.16572815184059714 1 0.16572815184059708
v 0.16572815184059714 0 0.16572815184059708
v 0.16572815184059714 0 0.16572815184059708
v 0.42506504775053544 0.8917354345603979 0.9222356348684345
v 0.07151165715726182 0.8917354345603979 0.5686822442751608
v 0.6750650477505354 0.5381820439671242 0.6722356348684345
v 0.3215116571572617 0.5381820439671242 0.3186822442751608
v 0.39381504775053555 0.8475412607362387 0.9534856348684345
v 0.040261657157261765 0.8475412607362387 0.5999322442751608
v 0.6438150477505354 0.49398787014296497 0.7034856348684345
v 0.2902616571572617 0.49398787014296497 0.3499322442751608
v 1.0418313002999557 0.815083857261409 0.30546938231901405
v 0.6882779097066822 0.815083857261409 -0.04808400827425974
v 1.0249189221703874 0.7573413864794536 0.3223817604485827
v 0.6713655315771137 0.7573413864794536 -0.031171630144691154
v 0.9193410223427958 0.8868370008298633 0.42795966027617427
v 0.565787631749522 0.8868370008298633 0.07440626968290054
v 0.902428644213227 0.8290945300479079 0.44487203840574296
v 0.5488752536199533 0.8290945300479079 0.09131864781246912
v 0.42689657540843273 0.8899620008298632 0.9204041072105373
v 0.07334318481515895 0.8899620008298632 0.5668507166172636
v 0.4438089535380013 0.8322195300479078 0.9034917290809686
v 0.09025556294472747 0.8322195300479078 0.5499383384876949
v 0.3044062974512723 0.8182088572614089 1.0428943851676977
v -0.049147093142001386 0.8182088572614089 0.689340994574424
v 0.321318675580841 0.7604663864794535 1.0259820070381291
v -0.03223471501243269 0.7604663864794535 0.6724286164448552
v 0.9527366283237815 0.844860434560398 0.3945640542951885
v 0.5991832377305077 0.8448604345603982 0.041010663701914696
v 0.7027366283237815 0.4913070439671244 0.6445640542951885
v 0.34918323773050775 0.4913070439671244 0.29101066370191475
v 0.9214866283237815 0.8890546083845573 0.4258140542951885
v 0.5679332377305077 0.8890546083845573 0.07226066370191475
v 0.6714866283237815 0.5355012177912836 0.6758140542951885
v 0.31793323773050775 0.5355012177912837 0.32226066370191475
v 0.4490735482616198 0.7091148089978588 0.19660556339526403
v 0.4490735482616198 0.7091148089978588 0.19660556339526403
v 0.3240735482616199 0.532338113701222 0.321605563395264
v 0.3240735482616199 0.532338113701222 0.321605563395264
v 0.3240735482616199 0.8858915042944957 0.321605563395264
v 0.3240735482616199 0.8858915042944957 0.321605563395264
v 0.19907354826161988 0.7091148089978588 0.446605563395264
v 0.19907354826161988 0.7091148089978588 0.446605563395264
v 0.7950825214724777 0.7072842263802748 0.5488645366061218
v 0.7950825214724777 0.7072842263802748 0.5488645366061218
v 0.6700825214724777 0.5305075310836379 0.6738645366061218
v 0.6700825214724777 0.5305075310836379 0.6738645366061218
v 0.6700825214724777 0.8840609216769116 0.6738645366061218
v 0.6700825214724777 0.8840609216769116 0.6738645366061218
v 0.5450825214724777 0.7072842263802748 0.7988645366061218
v 0.5450825214724777 0.7072842263802748 0.7988645366061218
v 0.5478014517383801 0.7072842263802747 0.19973056339526407
v 0.5478014517383801 0.7072842263802747 0.19973056339526407
v 0.6728014517383801 0.5305075310836379 0.32473056339526407
v 0.6728014517383801 0.5305075310836379 0.32473056339526407
v 0.6728014517383801 0.8840609216769116 0.324730563395264
v 0.6728014517383801 0.8840609216769116 0.324730563395264
v 0.7978014517383801 0.7072842263802748 0.44973056339526407
v 0.7978014517383801 0.7072842263802748 0.44973056339526407
v 0.9211725500006929 0.8917354345603978 0.5697480371172063
v 0.5676191594074191 0.8917354345603978 0.9233014277104801
v 0.6711725500006929 0.5381820439671242 0.31974803711720623
v 0.3176191594074191 0.5381820439671241 0.67330142771048
v 0.9524225500006929 0.8475412607362387 0.6009980371172063
v 0.5988691594074191 0.8475412607362386 0.95455142771048
v 0.7024225500006929 0.49398787014296497 0.35099803711720623
v 0.3488691594074191 0.4939878701429649 0.70455142771048
v 0.30440629745127246 0.8150838572614089 -0.04701821543221418
v -0.049147093142001275 0.8150838572614089 0.30653517516105955
v 0.32131867558084104 0.7573413864794535 -0.03010583730264549
v -0.03223471501243258 0.7573413864794535 0.32344755329062824
v 0.42689657540843257 0.8868370008298632 0.07547206252494598
v 0.07334318481515889 0.8868370008298633 0.4290254531182197
v 0.4438089535380012 0.8290945300479078 0.09238444065451468
v 0.09025556294472747 0.8290945300479078 0.44593783124778835
v 0.9193410223427956 0.8899620008298632 0.567916509459309
v 0.5657876317495218 0.8899620008298631 0.9214699000525828
v 0.9024286442132269 0.8322195300479078 0.5510041313297405
v 0.5488752536199532 0.8322195300479077 0.9045575219230142
v 1.041831300299956 0.8182088572614088 0.6904067874164694
v 0.6882779097066822 0.8182088572614088 1.0439601780097432
v 1.0249189221703872 0.7604663864794534 0.6734944092869007
v 0.6713655315771134 0.7604663864794534 1.0270477998801744
v 0.3935009694274467 0.844860434560398 0.042076456543960195
v 0.03994757883417299 0.844860434560398 0.39562984713723387
v 0.6435009694274467 0.4913070439671243 0.2920764565439603
v 0.289947578834173 0.4913070439671244 0.645629847137234
v 0.4247509694274467 0.8890546083845572 0.0733264565439602
v 0.07119757883417299 0.8890546083845573 0.4268798471372339
v 0.6747509694274467 0.5355012177912836 0.3233264565439603
v 0.321197578834173 0.5355012177912836 0.6768798471372339
v 0.19554247852752238 0.7091148089978588 0.5457395366061218
v 0.19554247852752238 0.7091148089978588 0.5457395366061218
v 0.3205424785275223 0.532338113701222 0.6707395366061218
v 0.3205424785275223 0.532338113701222 0.6707395366061218
v 0.3205424785275223 0.8858915042944957 0.6707395366061218
v 0.3205424785275223 0.8858915042944957 0.6707395366061218
v 0.44554247852752227 0.709114808997859 0.7957395366061218
v 0.44554247852752227 0.709114808997859 0.7957395366061218
vt 0 1
vt 0 1
vt 0 0.75
vt 0 0.75
vt 0 1
vt 0 1
vt 0 0.75
vt 0 0.75
vt 0 1
vt 0.25 1
vt 0 1
vt 0.25 1
vt 0 1
vt 0.25 1
vt 0 1
vt 0.25 1
vt 0.5 0.5
vt 0.5 0.75
vt 0.25 0.75
vt 0.25 0.5
vt 0.25 0.75
vt 0.25 1
vt 0.5 1
vt 0.5 0.75
vt 0 1
vt 0 1
vt 0 0.75
vt 0 0.75
vt 0 1
vt 0 1
vt 0 0.75
vt 0 0.75
vt 0 1
vt 0 1
vt 0.25 1
vt 0.25 1
vt 0 1
vt 0 1
vt 0.25 1
vt 0.25 1
vt 0.25 0.5
vt 0.25 0.75
vt 0 0.75
vt 0 0.5
vt 0 0.75
vt 0 1
vt 0.25 1
vt 0.25 0.75
vt 0.125 0.375
vt 0.125 0.5
vt 0 0.5
vt 0 0.375
vt 0.625 0.875
vt 0.625 1
vt 0.5 1
vt 0.5 0.875
vt 0 1
vt 0 0.875
vt 0 0.875
vt 0 1
vt 0 0.875
vt 0 1
vt 0 1
vt 0 0.875
vt 0.1875 0.390625
vt 0.1875 0.375
vt 0.140625 0.375
vt 0.140625 0.390625
vt 0.1875 0.390625
vt 0.1875 0.375
vt 0.140625 0.375
vt 0.140625 0.390625
vt 0.1875 0.390625
vt 0.1875 0.375
vt 0.140625 0.375
vt 0.140625 0.390625
vt 0.125 1
vt 0.125 1
vt 0 1
vt 0 1
vt 0.25 0.5
vt 0.25 0.375
vt 0.296875 0.375
vt 0.296875 0.5
vt 0.5 0.609375
vt 0.5 0.734375
vt 0.546875 0.734375
vt 0.546875 0.609375
vt 0.1875 0.390625
vt 0.1875 0.375
vt 0.140625 0.375
vt 0.140625 0.390625
vt 0.1875 0.390625
vt 0.1875 0.375
vt 0.140625 0.375
vt 0.140625 0.390625
vt 0.125 1
vt 0.125 1
vt 0 1
vt 0 1
vt 0.1875 0.390625
vt 0.1875 0.375
vt 0.140625 0.375
vt 0.140625 0.390625
vt 0.296875 0.5
vt 0.296875 0.375
vt 0.34375 0.375
vt 0.34375 0.5
vt 0.34375 0.375
vt 0.34375 0.5
vt 0.390625 0.5
vt 0.390625 0.375
vt 0.1875 0.390625
vt 0.1875 0.375
vt 0.140625 0.375
vt 0.140625 0.390625
vt 0.1875 0.390625
vt 0.1875 0.375
vt 0.140625 0.375
vt 0.140625 0.390625
vt 0.25 0.375
vt 0.25 0.5
vt 0.125 0.5
vt 0.125 0.375
vt 0.625 0.734375
vt 0.625 0.859375
vt 0.5 0.859375
vt 0.5 0.734375
vt 0 1
vt 0 0.875
vt 0 0.875
vt 0 1
vt 0.1875 0.390625
vt 0.1875 0.375
vt 0.140625 0.375
vt 0.140625 0.390625
vt 0.1875 0.390625
vt 0.1875 0.375
vt 0.140625 0.375
vt 0.140625 0.390625
vt 0.1875 0.390625
vt 0.1875 0.375
vt 0.140625 0.375
vt 0.140625 0.390625
vt 0 1
vt 0 1
vt 0 0.9375
vt 0 0.9375
vt 0 1
vt 0 1
vt 0 0.9375
vt 0 0.9375
vt 0 1
vt 0.0625 1
vt 0 1
vt 0.0625 1
vt 0 1
vt 0 1
vt 0.0625 1
vt 0.0625 1
vt 0.49259690463264627 0.5566992393712087
vt 0.5526757606287913 0.5394719046326463
vt 0.5699030953673537 0.5995507606287913
vt 0.5098242393712087 0.6167780953673537
vt 0.453125 0.4375
vt 0.453125 0.5
vt 0.390625 0.5
vt 0.390625 0.4375
vt 0 1
vt 0 1
vt 0 0.9375
vt 0 0.9375
vt 0 1
vt 0 1
vt 0 0.9375
vt 0 0.9375
vt 0 1
vt 0.0625 1
vt 0 1
vt 0.0625 1
vt 0 1
vt 0.0625 1
vt 0 1
vt 0.0625 1
vt 0.515625 0.484375
vt 0.578125 0.484375
vt 0.578125 0.546875
vt 0.515625 0.546875
vt 0.515625 0.4375
vt 0.515625 0.5
vt 0.453125 0.5
vt 0.453125 0.4375
vt 0 1
vt 0 1
vt 0 0.9375
vt 0 0.9375
vt 0 1
vt 0 1
vt 0 0.9375
vt 0 0.9375
vt 0 1
vt 0.0625 1
vt 0 1
vt 0.0625 1
vt 0 1
vt 0 1
vt 0.0625 1
vt 0.0625 1
vt 0.515625 0.484375
vt 0.578125 0.484375
vt 0.578125 0.546875
vt 0.515625 0.546875
vt 0.515625 0.4375
vt 0.515625 0.5
vt 0.453125 0.5
vt 0.453125 0.4375
vt 0.125 0.375
vt 0.125 0.5
vt 0 0.5
vt 0 0.375
vt 0.625 0.875
vt 0.625 1
vt 0.5 1
vt 0.5 0.875
vt 0 1
vt 0 0.875
vt 0 0.875
vt 0 1
vt 0.1875 0.390625
vt 0.1875 0.375
vt 0.140625 0.375
vt 0.140625 0.390625
vt 0.1875 0.390625
vt 0.1875 0.375
vt 0.140625 0.375
vt 0.140625 0.390625
vt 0.1875 0.390625
vt 0.1875 0.375
vt 0.140625 0.375
vt 0.140625 0.390625
vt 0.1875 0.390625
vt 0.1875 0.375
vt 0.140625 0.375
vt 0.140625 0.390625
vt 0.125 1
vt 0.125 1
vt 0 1
vt 0 1
vt 0.25 0.5
vt 0.25 0.375
vt 0.296875 0.375
vt 0.296875 0.5
vt 0.5 0.609375
vt 0.5 0.734375
vt 0.546875 0.734375
vt 0.546875 0.609375
vt 0.1875 0.390625
vt 0.1875 0.375
vt 0.140625 0.375
vt 0.140625 0.390625
vt 0.1875 0.390625
vt 0.1875 0.375
vt 0.140625 0.375
vt 0.140625 0.390625
vt 0.125 1
vt 0.125 1
vt 0 1
vt 0 1
vt 0.1875 0.390625
vt 0.1875 0.375
vt 0.140625 0.375
vt 0.140625 0.390625
vt 0.296875 0.5
vt 0.296875 0.375
vt 0.34375 0.375
vt 0.34375 0.5
vt 0.34375 0.375
vt 0.34375 0.5
vt 0.390625 0.5
vt 0.390625 0.375
vt 0.1875 0.390625
vt 0.1875 0.375
vt 0.140625 0.375
vt 0.140625 0.390625
vt 0.1875 0.390625
vt 0.1875 0.375
vt 0.140625 0.375
vt 0.140625 0.390625
vt 0.25 0.375
vt 0.25 0.5
vt 0.125 0.5
vt 0.125 0.375
vt 0.625 0.734375
vt 0.625 0.859375
vt 0.5 0.859375
vt 0.5 0.734375
vt 0 1
vt 0 0.875
vt 0 0.875
vt 0 1
vt 0.1875 0.390625
vt 0.1875 0.375
vt 0.140625 0.375
vt 0.140625 0.390625
vt 0.1875 0.390625
vt 0.1875 0.375
vt 0.140625 0.375
vt 0.140625 0.390625
vt 0.1875 0.390625
vt 0.1875 0.375
vt 0.140625 0.375
vt 0.140625 0.390625
vt 0 1
vt 0 1
vt 0 0.9375
vt 0 0.9375
vt 0 1
vt 0 1
vt 0 0.9375
vt 0 0.9375
vt 0 1
vt 0.0625 1
vt 0 1
vt 0.0625 1
vt 0 1
vt 0 1
vt 0.0625 1
vt 0.0625 1
vt 0.49187270279155937 0.5580612649399935
vt 0.5513137350600065 0.5387477027915594
vt 0.5706272972084406 0.5981887350600065
vt 0.5111862649399935 0.6175022972084406
vt 0.4531249999999999 0.4374999999999999
vt 0.4531250000000001 0.5
vt 0.3906250000000001 0.5
vt 0.3906249999999999 0.4375
vn 0 0 0
vn 0 0 0
vn 0 0 0
vn 0 0 0
vn 0.7071067811865476 0 0.7071067811865475
vn -0.7071067811865476 0 -0.7071067811865475
vn 0 0 0
vn 0 0 0
vn 0 0 0
vn 0 0 0
vn -0.7071067811865476 0 0.7071067811865475
vn 0.7071067811865476 0 -0.7071067811865475
vn 0.5000000000000001 0.7071067811865475 -0.5
vn -0.5 -0.7071067811865476 0.5
vn -0.5000000000000001 0.7071067811865476 0.4999999999999999
vn 0.5000000000000003 -0.7071067811865471 -0.5000000000000003
vn 0.7071067811865478 3.14018491736755e-16 0.7071067811865472
vn -0.7071067811865477 7.85046229341888e-17 -0.7071067811865474
vn 0.6532814824381885 -0.3826834323650891 -0.6532814824381884
vn -0.6532814824381876 0.3826834323650913 0.653281482438188
vn 0.2705980500730985 0.9238795325112867 -0.27059805007309845
vn -0.27059805007309845 -0.9238795325112868 0.2705980500730984
vn 0.707106781186548 7.07272807778018e-16 0.707106781186547
vn -0.7071067811865472 1.7544367817594799e-15 -0.7071067811865478
vn 0.6532814824381886 0.3826834323650892 -0.6532814824381884
vn -0.6532814824381884 -0.3826834323650891 0.6532814824381885
vn -0.2705980500730983 0.9238795325112868 0.27059805007309823
vn 0.27059805007309823 -0.9238795325112868 -0.2705980500730983
vn 0.7071067811865476 -1.4574489055710456e-15 0.7071067811865475
vn -0.7071067811865476 0 -0.7071067811865475
vn 0.49999999999999994 -0.7071067811865476 -0.5000000000000002
vn -0.5 0.7071067811865476 0.5
vn 0.49999999999999956 0.7071067811865485 -0.4999999999999993
vn -0.5 -0.7071067811865476 0.5000000000000001
vn 0.7071067811865476 3.925231146709438e-17 0.7071067811865475
vn -0.7071067811865476 0 -0.7071067811865475
vn 0 0 0
vn 0 0 0
vn 0 0 0
vn 0 0 0
vn 0.7071067811865476 0 0.7071067811865475
vn -0.7071067811865476 0 -0.7071067811865475
vn 0 0 0
vn 0 0 0
vn 0 0 0
vn 0 0 0
vn 0.7071067811865477 7.850462293418876e-17 0.7071067811865474
vn -0.7071067811865475 7.850462293418877e-17 -0.7071067811865476
vn 0 0 0
vn 0 0 0
vn 0 0 0
vn 0 0 0
vn 0.7071067811865475 -1.5700924586837752e-16 -0.7071067811865476
vn -0.7071067811865476 2.355138688025662e-16 0.7071067811865475
vn -0.49999999999999994 0.7071067811865477 -0.49999999999999994
vn 0.5 -0.7071067811865477 0.4999999999999999
vn 0.5000000000000002 0.7071067811865471 0.5000000000000004
vn -0.5000000000000001 -0.7071067811865471 -0.5000000000000006
vn 0.7071067811865476 1.5700924586837754e-16 -0.7071067811865475
vn -0.7071067811865476 -7.850462293418866e-17 0.7071067811865475
vn -0.653281482438188 -0.3826834323650906 -0.6532814824381881
vn 0.6532814824381883 0.3826834323650899 0.6532814824381882
vn -0.270598050073099 0.9238795325112866 -0.2705980500730991
vn 0.2705980500730986 -0.9238795325112866 0.2705980500730986
vn 0.707106781186548 -1.1175577393676004e-15 -0.707106781186547
vn -0.7071067811865475 0 0.7071067811865476
vn -0.6532814824381881 0.3826834323650906 -0.653281482438188
vn 0.653281482438188 -0.3826834323650914 0.6532814824381878
vn 0.2705980500730982 0.9238795325112871 0.27059805007309845
vn -0.2705980500730987 -0.9238795325112867 -0.27059805007309895
vn 0.7071067811865476 -5.235819869907313e-16 -0.7071067811865475
vn -0.7071067811865475 0 0.7071067811865476
vn -0.49999999999999994 -0.7071067811865478 -0.5
vn 0.4999999999999999 0.7071067811865478 0.49999999999999983
vn -0.5000000000000002 0.7071067811865471 -0.5000000000000004
vn 0.5000000000000002 -0.7071067811865472 0.5000000000000003
vn 0.7071067811865478 1.177569344012832e-16 -0.7071067811865472
vn -0.7071067811865479 -5.495323605393216e-16 0.7071067811865471
vn 0 0 0
vn 0 0 0
vn 0 0 0
vn 0 0 0
vn 0.7071067811865476 -1.5700924586837747e-16 -0.7071067811865475
vn -0.7071067811865476 1.5700924586837754e-16 0.7071067811865475
usemtl m_1e99b131-494f-3249-1f69-82905835cb6a
f 2/1/1 1/2/1 4/3/1 3/4/1
f 5/5/2 6/6/2 7/7/2 8/8/2
f 2/9/3 6/10/3 1/11/3 5/12/3
f 3/13/4 7/14/4 4/15/4 8/16/4
f 3/17/5 1/18/5 5/19/5 7/20/5
f 8/21/6 6/22/6 2/23/6 4/24/6
f 10/25/7 9/26/7 12/27/7 11/28/7
f 13/29/8 14/30/8 15/31/8 16/32/8
f 9/33/9 10/34/9 14/35/9 13/36/9
f 12/37/10 11/38/10 15/39/10 16/40/10
f 11/41/11 9/42/11 13/43/11 15/44/11
f 16/45/12 14/46/12 10/47/12 12/48/12
usemtl m_1c3902cb-2512-be19-e68a-4fe0145e3cbd
f 20/49/13 18/50/13 17/51/13 19/52/13
f 23/53/14 21/54/14 22/55/14 24/56/14
f 17/57/15 18/58/15 22/59/15 21/60/15
f 20/61/16 19/62/16 23/63/16 24/64/16
f 19/65/17 17/66/17 21/67/17 23/68/17
f 24/69/18 22/70/18 18/71/18 20/72/18
f 28/73/19 26/74/19 25/75/19 27/76/19
f 31/77/20 29/78/20 30/79/20 32/80/20
f 25/81/21 26/82/21 30/83/21 29/84/21
f 28/85/22 27/86/22 31/87/22 32/88/22
f 27/89/23 25/90/23 29/91/23 31/92/23
f 32/93/24 30/94/24 26/95/24 28/96/24
f 36/97/25 34/98/25 33/99/25 35/100/25
f 39/101/26 37/102/26 38/103/26 40/104/26
f 33/105/27 34/106/27 38/107/27 37/108/27
f 36/109/28 35/110/28 39/111/28 40/112/28
f 35/113/29 33/114/29 37/115/29 39/116/29
f 40/117/30 38/118/30 34/119/30 36/120/30
f 44/121/31 42/122/31 41/123/31 43/124/31
f 47/125/32 45/126/32 46/127/32 48/128/32
f 41/129/33 42/130/33 46/131/33 45/132/33
f 44/133/34 43/134/34 47/135/34 48/136/34
f 43/137/35 41/138/35 45/139/35 47/140/35
f 48/141/36 46/142/36 42/143/36 44/144/36
f 50/145/37 49/146/37 52/147/37 51/148/37
f 53/149/38 54/150/38 55/151/38 56/152/38
f 50/153/39 54/154/39 49/155/39 53/156/39
f 52/157/40 51/158/40 55/159/40 56/160/40
f 51/161/41 49/162/41 53/163/41 55/164/41
f 56/165/42 54/166/42 50/167/42 52/168/42
f 58/169/43 57/170/43 60/171/43 59/172/43
f 61/173/44 62/174/44 63/175/44 64/176/44
f 58/177/45 62/178/45 57/179/45 61/180/45
f 59/181/46 63/182/46 60/183/46 64/184/46
f 59/185/47 57/186/47 61/187/47 63/188/47
f 64/189/48 62/190/48 58/191/48 60/192/48
f 66/193/49 65/194/49 68/195/49 67/196/49
f 69/197/50 70/198/50 71/199/50 72/200/50
f 66/201/51 70/202/51 65/203/51 69/204/51
f 68/205/52 67/206/52 71/207/52 72/208/52
f 67/209/53 65/210/53 69/211/53 71/212/53
f 72/213/54 70/214/54 66/215/54 68/216/54
f 76/217/55 74/218/55 73/219/55 75/220/55
f 79/221/56 77/222/56 78/223/56 80/224/56
f 73/225/57 74/226/57 78/227/57 77/228/57
f 76/229/58 75/230/58 79/231/58 80/232/58
f 75/233/59 73/234/59 77/235/59 79/236/59
f 80/237/60 78/238/60 74/239/60 76/240/60
f 84/241/61 82/242/61 81/243/61 83/244/61
f 87/245/62 85/246/62 86/247/62 88/248/62
f 81/249/63 82/250/63 86/251/63 85/252/63
f 84/253/64 83/254/64 87/255/64 88/256/64
f 83/257/65 81/258/65 85/259/65 87/260/65
f 88/261/66 86/262/66 82/263/66 84/264/66
f 92/265/67 90/266/67 89/267/67 91/268/67
f 95/269/68 93/270/68 94/271/68 96/272/68
f 89/273/69 90/274/69 94/275/69 93/276/69
f 92/277/70 91/278/70 95/279/70 96/280/70
f 91/281/71 89/282/71 93/283/71 95/284/71
f 96/285/72 94/286/72 90/287/72 92/288/72
f 100/289/73 98/290/73 97/291/73 99/292/73
f 103/293/74 101/294/74 102/295/74 104/296/74
f 97/297/75 98/298/75 102/299/75 101/300/75
f 100/301/76 99/302/76 103/303/76 104/304/76
f 99/305/77 97/306/77 101/307/77 103/308/77
f 104/309/78 102/310/78 98/311/78 100/312/78
f 106/313/79 105/314/79 108/315/79 107/316/79
f 109/317/80 110/318/80 111/319/80 112/320/80
f 106/321/81 110/322/81 105/323/81 109/324/81
f 108/325/82 107/326/82 111/327/82 112/328/82
f 107/329/83 105/330/83 109/331/83 111/332/83
f 112/333/84 110/334/84 106/335/84 108/336/84